<?xml version="1.0" encoding="utf-8"?>
<!-- Generated by IcoMoon.io -->
<!DOCTYPE svg PUBLIC "-//W3C//DTD SVG 1.1//EN" "http://www.w3.org/Graphics/SVG/1.1/DTD/svg11.dtd">
<svg version="1.1" xmlns="http://www.w3.org/2000/svg" xmlns:xlink="http://www.w3.org/1999/xlink" width="85" height="32" viewBox="0 0 85 32">
<path fill="#26559a" d="M0.154 0.173h84.773v31.828h-84.773z"></path>
<path fill="#fff" d="M44.778 15.959c-0.569 0-0.978 0.186-1.394 0.376v4.292c0.399 0.039 0.625 0.039 1.004 0.039 1.365 0 1.552-0.625 1.552-1.496v-2.050c0-0.643-0.214-1.16-1.162-1.16zM35.715 15.724c-0.947 0-1.162 0.519-1.162 1.162v0.361h2.325v-0.361c-0-0.643-0.216-1.162-1.162-1.162zM18.158 20.192c0 0.508 0.24 0.772 0.77 0.772 0.569 0 0.905-0.185 1.321-0.376v-1.017h-1.244c-0.589 0-0.847 0.109-0.847 0.621zM53.595 15.959c-0.948 0-1.277 0.517-1.277 1.16v2.349c0 0.645 0.329 1.163 1.277 1.163 0.946 0 1.277-0.518 1.277-1.163v-2.349c-0-0.643-0.331-1.16-1.277-1.16zM13.51 22.825h-2.787v-6.739h-1.394v-2.323h1.394v-1.394c0-1.895 0.787-3.021 3.020-3.021h1.861v2.323h-1.162c-0.87 0-0.928 0.325-0.928 0.93l-0.004 1.162h2.108l-0.247 2.323h-1.861v6.739zM23.039 22.842h-2.323l-0.1-0.587c-1.061 0.587-2.008 0.682-2.633 0.682-1.704 0-2.611-1.137-2.611-2.709 0-1.854 1.058-2.517 2.951-2.517h1.927v-0.401c0-0.947-0.109-1.225-1.567-1.225h-2.384l0.233-2.323h2.605c3.199 0 3.901 1.010 3.901 3.566v5.513zM30.94 16.256c-1.446-0.248-1.861-0.302-2.556-0.302-1.25 0-1.628 0.276-1.628 1.335v2.005c0 1.060 0.378 1.336 1.628 1.336 0.695 0 1.111-0.055 2.556-0.303v2.265c-1.267 0.284-2.092 0.359-2.789 0.359-2.994 0-4.183-1.572-4.183-3.843v-1.627c0-2.272 1.189-3.848 4.183-3.848 0.697 0 1.522 0.075 2.789 0.359v2.265zM39.664 19.107h-5.112v0.187c0 1.060 0.378 1.336 1.627 1.336 1.124 0 1.809-0.055 3.252-0.303v2.265c-1.392 0.284-2.117 0.359-3.483 0.359-2.993 0-4.184-1.572-4.184-3.843v-1.86c0-1.986 0.884-3.614 3.951-3.614s3.949 1.609 3.949 3.614l-0 1.86zM48.727 19.15c0 2.195-0.628 3.796-4.433 3.796-1.373 0-2.18-0.121-3.697-0.354v-12.546l2.787-0.464v4.388c0.602-0.224 1.382-0.337 2.092-0.337 2.788 0 3.252 1.248 3.252 3.253v2.264zM57.662 19.198c0 1.893-0.783 3.73-4.058 3.73-3.277 0-4.074-1.837-4.074-3.73v-1.828c0-1.894 0.797-3.731 4.074-3.731 3.275 0 4.058 1.837 4.058 3.731v1.828zM66.589 19.198c0 1.893-0.784 3.73-4.057 3.73-3.277 0-4.075-1.837-4.075-3.73v-1.828c0-1.894 0.798-3.731 4.075-3.731 3.274 0 4.057 1.837 4.057 3.731v1.828zM75.752 22.825h-3.022l-2.555-4.259v4.259h-2.787v-12.779l2.787-0.464v8.227l2.555-4.045h3.022l-2.79 4.414 2.79 4.648zM62.522 15.959c-0.947 0-1.275 0.517-1.275 1.16v2.349c0 0.645 0.329 1.163 1.275 1.163 0.946 0 1.28-0.518 1.28-1.163v-2.349c0-0.643-0.334-1.16-1.28-1.16zM77.343 21.236c0.469 0 0.843 0.382 0.843 0.859 0 0.485-0.374 0.863-0.847 0.863-0.47 0-0.851-0.378-0.851-0.863 0-0.477 0.382-0.859 0.851-0.859h0.004zM77.339 21.369c-0.378 0-0.687 0.325-0.687 0.726 0 0.408 0.309 0.73 0.692 0.73 0.382 0.004 0.687-0.321 0.687-0.726s-0.306-0.73-0.687-0.73h-0.004zM77.178 22.596h-0.152v-0.959c0.080-0.012 0.156-0.022 0.271-0.022 0.146 0 0.241 0.030 0.298 0.072s0.087 0.107 0.087 0.199c0 0.126-0.083 0.202-0.186 0.233v0.008c0.084 0.015 0.141 0.091 0.16 0.232 0.023 0.149 0.046 0.207 0.061 0.238h-0.16c-0.023-0.030-0.047-0.119-0.065-0.244-0.023-0.123-0.084-0.169-0.207-0.169h-0.107v0.413zM77.178 22.065h0.111c0.125 0 0.233-0.046 0.233-0.164 0-0.085-0.061-0.169-0.233-0.169-0.050 0-0.085 0.004-0.111 0.008v0.325z"></path>
</svg>
