<?xml version="1.0" encoding="utf-8"?>
<!-- Generated by IcoMoon.io -->
<!DOCTYPE svg PUBLIC "-//W3C//DTD SVG 1.1//EN" "http://www.w3.org/Graphics/SVG/1.1/DTD/svg11.dtd">
<svg version="1.1" xmlns="http://www.w3.org/2000/svg" xmlns:xlink="http://www.w3.org/1999/xlink" width="64" height="32" viewBox="0 0 64 32">
<path fill="#3db4e7" d="M60.307 15.661c2.035 0 3.684 1.642 3.684 3.668s-1.649 3.667-3.684 3.667-3.684-1.642-3.684-3.668c0-2.025 1.649-3.668 3.684-3.668z"></path>
<path fill="#82bc23" d="M30.649 28.695h-6.676l0.007-16.607 6.669 0.023 0.001 16.583z"></path>
<path fill="#82bc23" d="M27.312 25.302c1.821 0 3.297 1.5 3.297 3.349s-1.476 3.349-3.297 3.349-3.298-1.5-3.298-3.349 1.477-3.349 3.298-3.349zM27.312 8.662c1.821 0 3.297 1.5 3.297 3.349s-1.476 3.349-3.297 3.349-3.298-1.5-3.298-3.349c0-1.85 1.477-3.349 3.298-3.349zM3.332 25.385c1.801 0 3.26 1.48 3.26 3.306s-1.459 3.306-3.26 3.306c-1.801 0-3.26-1.48-3.26-3.306s1.46-3.306 3.26-3.306zM3.347 0c1.808 0 3.273 1.496 3.273 3.343s-1.465 3.343-3.273 3.343c-1.808 0-3.273-1.497-3.273-3.343s1.466-3.343 3.273-3.343z"></path>
<path fill="#82bc23" d="M0 3.458l6.655 0.070 0.033 12.258 6.161-6.025 4.914 4.582-4.335 4.268 6.058 8.167-5.403 3.92-5.772-7.715-1.681 1.559-0 4.338-6.631-0.259 0-25.164z"></path>
<path fill="#82bc23" d="M15.32 8.664c1.839 0 3.33 1.496 3.33 3.341s-1.49 3.341-3.33 3.341c-1.838 0-3.329-1.496-3.329-3.342s1.491-3.341 3.33-3.341zM16.665 25.284c1.828 0 3.31 1.503 3.31 3.357s-1.481 3.356-3.31 3.356c-1.828 0-3.31-1.503-3.31-3.357s1.482-3.357 3.31-3.357zM38.646 25.385c1.801 0 3.26 1.48 3.26 3.306s-1.459 3.306-3.26 3.306c-1.801 0-3.261-1.48-3.261-3.306s1.46-3.306 3.261-3.306zM38.66 0c1.808 0 3.273 1.496 3.273 3.343s-1.465 3.343-3.273 3.343c-1.808 0-3.273-1.497-3.273-3.343s1.466-3.343 3.273-3.343z"></path>
<path fill="#82bc23" d="M35.314 3.458l6.655 0.070 0.033 12.258 6.161-6.025 4.913 4.582-4.335 4.268 6.058 8.167-5.403 3.92-5.772-7.715-1.681 1.559v4.338l-6.631-0.259 0-25.164z"></path>
<path fill="#82bc23" d="M50.633 8.664c1.839 0 3.33 1.496 3.33 3.341s-1.491 3.341-3.33 3.341c-1.839 0-3.33-1.496-3.33-3.342s1.491-3.341 3.33-3.341zM51.979 25.284c1.828 0 3.309 1.503 3.309 3.357s-1.481 3.356-3.309 3.356-3.31-1.503-3.31-3.357c0-1.854 1.482-3.357 3.31-3.357z"></path>
</svg>
