<?xml version="1.0" encoding="utf-8"?>
<!-- Generated by IcoMoon.io -->
<!DOCTYPE svg PUBLIC "-//W3C//DTD SVG 1.1//EN" "http://www.w3.org/Graphics/SVG/1.1/DTD/svg11.dtd">
<svg version="1.1" xmlns="http://www.w3.org/2000/svg" xmlns:xlink="http://www.w3.org/1999/xlink" width="150" height="32" viewBox="0 0 150 32">
<path fill="#706d6e" d="M149.89 14.476v-2.636h-3.273v-4.098l-0.11 0.034-3.135 0.959v3.105h-4.853v-1.73c0-0.806 0.18-1.422 0.535-1.833 0.353-0.406 0.857-0.613 1.5-0.613 0.463 0 0.941 0.109 1.423 0.324l0.121 0.054v-2.776l-0.057-0.021c-0.45-0.162-1.060-0.243-1.818-0.243-0.955 0-1.822 0.208-2.579 0.62s-1.353 1.001-1.77 1.75c-0.416 0.748-0.627 1.611-0.627 2.567v1.902h-2.279v2.636h2.279v11.105h3.272v-11.105h4.853v7.057c0 2.907 1.371 4.379 4.074 4.379 0.444 0 0.912-0.052 1.389-0.154 0.486-0.105 0.817-0.209 1.012-0.321l0.043-0.026v-2.66l-0.133 0.088c-0.178 0.118-0.399 0.215-0.658 0.287-0.26 0.073-0.478 0.11-0.646 0.11-0.633 0-1.102-0.171-1.393-0.508-0.294-0.34-0.443-0.934-0.443-1.766v-6.488h3.273zM125.659 23.237c-1.188 0-2.124-0.394-2.784-1.17-0.664-0.78-1-1.891-1-3.303 0-1.457 0.336-2.597 1-3.391 0.66-0.788 1.588-1.188 2.757-1.188 1.135 0 2.038 0.382 2.685 1.136 0.65 0.758 0.98 1.889 0.98 3.363 0 1.492-0.31 2.638-0.922 3.405-0.608 0.761-1.521 1.148-2.716 1.148zM125.805 11.509c-2.266 0-4.066 0.664-5.349 1.973-1.282 1.31-1.932 3.122-1.932 5.387 0 2.151 0.635 3.882 1.887 5.143s2.956 1.9 5.063 1.9c2.197 0 3.96-0.673 5.243-2.001 1.282-1.326 1.932-3.121 1.932-5.333 0-2.185-0.61-3.929-1.813-5.181s-2.897-1.888-5.031-1.888zM113.248 11.509c-1.541 0-2.816 0.394-3.79 1.172-0.98 0.782-1.477 1.808-1.477 3.049 0 0.645 0.107 1.218 0.318 1.704 0.212 0.488 0.541 0.917 0.978 1.277 0.434 0.357 1.102 0.732 1.989 1.113 0.745 0.307 1.301 0.566 1.654 0.77 0.345 0.2 0.59 0.402 0.728 0.598 0.134 0.192 0.203 0.455 0.203 0.779 0 0.923-0.691 1.372-2.114 1.372-0.528 0-1.13-0.11-1.789-0.327s-1.276-0.529-1.832-0.929l-0.136-0.097v3.15l0.050 0.023c0.463 0.214 1.047 0.394 1.735 0.536 0.687 0.142 1.311 0.214 1.853 0.214 1.673 0 3.019-0.396 4.002-1.178 0.989-0.787 1.49-1.837 1.49-3.121 0-0.926-0.27-1.721-0.802-2.361-0.528-0.635-1.445-1.219-2.724-1.734-1.019-0.409-1.672-0.748-1.941-1.009-0.26-0.252-0.391-0.608-0.391-1.058 0-0.399 0.163-0.72 0.497-0.979 0.337-0.261 0.805-0.393 1.393-0.393 0.545 0 1.103 0.086 1.658 0.255s1.041 0.395 1.448 0.671l0.134 0.091v-2.988l-0.051-0.022c-0.375-0.161-0.869-0.298-1.47-0.41-0.598-0.111-1.14-0.167-1.612-0.167zM99.45 23.237c-1.188 0-2.124-0.394-2.784-1.17-0.664-0.78-1-1.891-1-3.303 0-1.457 0.336-2.597 1-3.391 0.66-0.788 1.587-1.188 2.757-1.188 1.134 0 2.037 0.382 2.684 1.136 0.65 0.758 0.98 1.889 0.98 3.363 0 1.492-0.31 2.638-0.922 3.405-0.608 0.761-1.521 1.148-2.716 1.148zM99.596 11.509c-2.266 0-4.066 0.664-5.349 1.973s-1.933 3.122-1.933 5.387c0 2.152 0.635 3.882 1.887 5.143s2.955 1.9 5.063 1.9c2.196 0 3.96-0.673 5.243-2.001 1.282-1.326 1.932-3.121 1.932-5.333 0-2.185-0.61-3.929-1.813-5.181s-2.897-1.888-5.031-1.888zM87.347 14.22v-2.38h-3.232v13.741h3.232v-7.029c0-1.195 0.271-2.177 0.806-2.919 0.528-0.733 1.231-1.104 2.090-1.104 0.291 0 0.618 0.048 0.972 0.143 0.35 0.094 0.604 0.197 0.754 0.304l0.136 0.099v-3.258l-0.052-0.022c-0.301-0.128-0.727-0.192-1.266-0.192-0.812 0-1.539 0.261-2.162 0.775-0.547 0.452-0.941 1.071-1.243 1.843h-0.034zM78.327 11.509c-1.483 0-2.806 0.318-3.931 0.945-1.127 0.628-1.999 1.525-2.593 2.666-0.59 1.138-0.89 2.467-0.89 3.949 0 1.298 0.291 2.49 0.865 3.54 0.575 1.052 1.389 1.875 2.419 2.445 1.029 0.57 2.218 0.859 3.534 0.859 1.536 0 2.848-0.307 3.899-0.913l0.043-0.024v-2.961l-0.136 0.099c-0.476 0.347-1.009 0.624-1.581 0.824-0.571 0.199-1.092 0.3-1.549 0.3-1.268 0-2.287-0.397-3.025-1.179-0.74-0.783-1.116-1.884-1.116-3.268 0-1.393 0.391-2.521 1.163-3.354 0.769-0.83 1.79-1.251 3.032-1.251 1.062 0 2.098 0.36 3.077 1.070l0.136 0.099v-3.121l-0.044-0.025c-0.369-0.206-0.871-0.377-1.495-0.506-0.621-0.129-1.229-0.194-1.807-0.194zM68.687 11.84h-3.232v13.741h3.232v-13.74zM67.104 5.986c-0.532 0-0.996 0.181-1.377 0.54-0.383 0.36-0.577 0.813-0.577 1.348 0 0.526 0.192 0.971 0.571 1.322 0.377 0.349 0.842 0.526 1.383 0.526s1.008-0.177 1.389-0.526c0.384-0.351 0.578-0.796 0.578-1.322 0-0.516-0.189-0.965-0.563-1.333s-0.846-0.554-1.405-0.554zM59.039 10.827v14.754h3.299v-19.174h-4.566l-5.803 14.242-5.632-14.242h-4.751v19.173h3.1v-14.756h0.106l5.947 14.756h2.339l5.854-14.755h0.106z"></path>
<path fill="#f1511b" d="M15.206 15.206h-15.206v-15.206h15.206v15.206z"></path>
<path fill="#80cc28" d="M31.994 15.206h-15.205v-15.206h15.205v15.206z"></path>
<path fill="#00adef" d="M15.205 32h-15.205v-15.205h15.205v15.205z"></path>
<path fill="#fbbc09" d="M31.994 32h-15.205v-15.205h15.205v15.205z"></path>
</svg>
