<?xml version="1.0" encoding="utf-8"?>
<!-- Generated by IcoMoon.io -->
<!DOCTYPE svg PUBLIC "-//W3C//DTD SVG 1.1//EN" "http://www.w3.org/Graphics/SVG/1.1/DTD/svg11.dtd">
<svg version="1.1" xmlns="http://www.w3.org/2000/svg" xmlns:xlink="http://www.w3.org/1999/xlink" width="32" height="32" viewBox="0 0 32 32">
<path fill="#fff" d="M16.173 28.532c-6.341 0-13.545-7.637-12.969-13.977 0.576-6.052 8.646-11.672 14.626-10.807 5.26 0.72 9.943 7.349 9.654 12.609-0.288 5.547-5.764 12.177-11.312 12.177z"></path>
<path fill="#00aff0" d="M20.713 31.774c-0.432-0.145-1.081-0.288-1.441-0.432-0.432-0.216-0.937-0.216-2.521-0.145-1.513 0.072-2.306 0-3.386-0.145-5.764-1.008-10.375-5.188-12.033-10.951-0.288-1.081-0.36-1.657-0.36-4.251 0-2.81-0.072-3.026-0.432-4.179-2.089-5.692 2.161-11.672 8.214-11.672 1.225 0 2.738 0.361 3.602 0.792 0.577 0.288 0.937 0.36 3.17 0.36 2.018 0 2.81 0.072 3.818 0.361 4.539 1.153 8.214 4.107 10.159 8.214 1.225 2.521 1.658 5.116 1.369 8.069-0.144 1.586-0.144 1.729 0.216 2.666 1.153 3.387 0.072 7.277-2.738 9.583-0.866 0.721-2.594 1.513-3.674 1.801-1.082 0.216-2.81 0.216-3.892-0.072h-0.070zM18.768 26.225c2.378-0.504 4.466-1.945 5.259-3.674 1.008-2.089 0.72-4.539-0.648-6.052-1.153-1.297-2.882-2.017-6.989-3.026-2.738-0.648-3.387-0.936-3.963-1.585-0.505-0.577-0.577-1.008-0.144-1.657 0.432-0.721 1.513-1.153 2.954-1.225 2.090-0.144 3.026 0.36 4.251 2.305 0.936 1.441 1.872 1.801 3.098 1.225 1.585-0.792 1.441-3.386-0.289-4.899-1.658-1.369-3.458-1.945-6.484-1.945-3.171 0-5.333 0.648-6.774 2.089-1.153 1.153-1.369 1.801-1.369 3.602 0 1.873 0.216 2.449 1.441 3.531 1.297 1.225 2.378 1.658 6.267 2.594 2.738 0.648 3.458 1.008 4.107 1.729 0.289 0.361 0.432 0.648 0.432 1.297 0 0.721-0.072 0.865-0.648 1.441-0.865 0.865-2.161 1.224-3.818 1.153-1.945-0.144-2.81-0.72-3.818-2.738-0.721-1.369-1.297-1.873-2.234-1.873-2.090 0-2.81 1.729-1.729 3.962 0.937 1.945 2.81 3.242 5.188 3.747 1.441 0.288 4.611 0.288 5.981 0h-0.072z"></path>
</svg>
