<?xml version="1.0" encoding="utf-8"?>
<!-- Generated by IcoMoon.io -->
<!DOCTYPE svg PUBLIC "-//W3C//DTD SVG 1.1//EN" "http://www.w3.org/Graphics/SVG/1.1/DTD/svg11.dtd">
<svg version="1.1" xmlns="http://www.w3.org/2000/svg" xmlns:xlink="http://www.w3.org/1999/xlink" width="107" height="32" viewBox="0 0 107 32">
<path fill="#443642" d="M37.955 12.554c0-3.178 2.317-5.396 6.527-5.396 2.569 0 4.671 0.82 5.81 1.624 0.163 0.115 0.454 0.393 0.279 0.911-0.223 0.558-0.633 1.396-0.927 1.941-0.171 0.317-0.608 0.276-0.832 0.162-0.811-0.411-2.142-1.106-3.364-1.235-0.3-0.032-0.615-0.049-0.932-0.041-1.076 0.024-1.976 0.398-2.293 1.219-0.064 0.163-0.098 0.327-0.102 0.488-0.029 1.082 1.477 1.474 3.301 1.787 3.392 0.581 5.958 1.576 5.958 5.067 0 2.965-2.357 5.645-6.973 5.562-3.044-0.062-5.203-1.090-6.36-2.088-0.039-0.034-0.48-0.482-0.244-1.022 0.27-0.694 0.726-1.49 1.084-1.913 0.199-0.272 0.724-0.315 0.997-0.146 0.954 0.593 2.523 1.543 4.333 1.606 0.143 0.005 0.284 0.006 0.423 0.002 1.628-0.039 2.612-0.656 2.592-1.696-0.018-0.916-1.308-1.451-3.363-1.838-3.277-0.618-5.914-1.698-5.914-4.995zM67.729 17.078c-2.311 0.030-4.43 0.662-4.491 2.468-0 1.433 1.162 2.137 2.794 2.045 1.565-0.151 2.759-0.83 3.285-1.73 0.195-0.334 0.224-1.583 0.212-2.117-0.003-0.114-0.228-0.329-0.326-0.37-0.491-0.207-0.855-0.271-1.474-0.296zM60.039 9.8c1.081-0.967 3.224-2.472 6.639-2.393 4.507 0.094 6.888 2.207 7.109 7.261 0.091 2.084-0.060 7.898-0.096 9.347-0.005 0.208-0.076 0.352-0.356 0.357-0.742 0.030-2.457 0.018-3.244 0.008-0.398-0.019-0.444-0.217-0.449-0.423-0.003-0.135-0.015-0.536-0.024-0.862-0.004-0.174-0.167-0.169-0.209-0.124-1.057 1.129-2.788 1.674-4.63 1.674-2.798 0-5.588-1.646-5.58-4.906 0.009-3.339 2.376-4.986 4.977-5.374 1.665-0.248 3.542-0.028 4.964 0.537 0.091 0.036 0.277-0.016 0.278-0.145 0.006-0.425-0.015-1.236-0.097-1.62-0.209-0.979-1.025-1.767-2.741-1.979-0.353-0.044-0.709-0.058-1.065-0.030-1.364 0.107-3.005 1.171-3.685 1.569-0.16 0.094-0.41 0.025-0.491-0.079-0.397-0.512-1.394-2.011-1.472-2.251s0.032-0.44 0.172-0.566l0.001 0.001zM75.273 16.015c-0.027-4.656 3.218-8.585 8.486-8.619 3.287-0.021 5.675 1.469 6.096 2.172 0.086 0.165 0.042 0.303-0.018 0.469-0.278 0.588-0.981 1.723-1.482 2.366-0.213 0.274-0.445 0.039-0.714-0.14-0.747-0.498-2.166-1.106-3.563-1.106-2.534 0-4.421 1.738-4.4 4.934 0.020 3.067 1.827 4.753 4.408 4.814 1.349 0.034 2.657-0.742 3.36-1.377 0.221-0.193 0.449-0.096 0.702 0.101 0.495 0.506 1.206 1.288 1.6 1.826 0.258 0.299 0.065 0.591-0.028 0.709-1.069 1.352-3.133 2.491-5.865 2.506-5.72 0.040-8.557-3.982-8.583-8.655zM102.576 24.46c0.268-0.020 3.134-0.416 4.013-0.617 0.218-0.050 0.296-0.233 0.174-0.415-0.491-0.736-1.782-2.827-3.134-4.699-1.244-1.721-2.554-3.235-2.978-3.818-0.103-0.142-0.098-0.281 0.015-0.391 0.806-0.789 4.18-4.097 5.448-5.463 0.491-0.531 0.196-0.76-0.221-0.884-0.806-0.24-2.109-0.54-2.85-0.696-0.312-0.066-0.689-0.043-0.962 0.238-1.268 1.183-5.138 5.067-6.294 6.228-0.208 0.21-0.329 0.163-0.33-0.136-0.010-2.239-0.054-11.823-0.134-13.4-0.006-0.208-0.256-0.367-0.398-0.374-0.727-0.038-2.562-0.049-3.285-0.006-0.203 0.023-0.396 0.229-0.414 0.404-0.167 2.521 0.071 21.026 0.17 23.615 0.007 0.187 0.146 0.332 0.324 0.343 0.722 0.042 2.506 0.039 3.34 0.024 0.41 0 0.46-0.288 0.46-0.288l0.062-4.966s0.042-0.221 0.111-0.294c0.294-0.316 1.106-1.187 1.453-1.524 0.083-0.081 0.214-0.075 0.299 0.039 0.412 0.555 1.586 2.361 2.674 3.973 1 1.481 1.933 2.796 1.999 2.889 0.151 0.214 0.326 0.223 0.459 0.219v-0zM53.85 24.443c0.252 0.009 2.164 0.006 3.011 0.005 0.285 0.006 0.433-0.21 0.443-0.401 0.18-3.63 0.103-20.91-0.011-23.639-0.009-0.236-0.11-0.324-0.271-0.346-0.727-0.097-2.793-0.075-3.455 0.099-0.13 0.034-0.206 0.132-0.21 0.259-0.162 7.033-0.053 23.249-0.018 23.556s0.195 0.456 0.513 0.467h-0z"></path>
<path fill="#70cadb" d="M2.688 17.227c-1.178 0.009-2.176-0.693-2.544-1.789-0.014-0.042-0.026-0.084-0.038-0.125-0.401-1.403 0.377-2.871 1.77-3.341l22.353-7.489c0.272-0.078 0.545-0.117 0.816-0.119 1.209-0.009 2.235 0.708 2.612 1.827l0.033 0.108c0.418 1.462-0.621 2.766-1.866 3.184-0.001 0.001-0.227 0.077-22.229 7.589-0.297 0.101-0.603 0.152-0.908 0.155z"></path>
<path fill="#e01765" d="M6.413 28.22c-1.187 0.009-2.189-0.684-2.552-1.764-0.014-0.041-0.027-0.083-0.039-0.124-0.407-1.42 0.37-2.903 1.768-3.374l22.354-7.557c0.289-0.097 0.587-0.146 0.887-0.149 1.191-0.009 2.237 0.718 2.605 1.811l0.034 0.114c0.216 0.755 0.089 1.604-0.341 2.273-0.32 0.498-1.329 0.936-1.329 0.936l-22.438 7.672c-0.313 0.104-0.631 0.16-0.95 0.162v-0z"></path>
<path fill="#e8a723" d="M25.021 28.268c-1.192 0.009-2.248-0.743-2.628-1.87l-7.46-22.16-0.037-0.124c-0.404-1.413 0.373-2.887 1.766-3.357 0.279-0.094 0.567-0.142 0.857-0.145 0.431-0.003 0.848 0.094 1.241 0.288 0.657 0.327 1.148 0.89 1.383 1.585l7.459 22.157 0.021 0.071c0.419 1.467-0.356 2.942-1.75 3.412-0.276 0.092-0.563 0.14-0.853 0.143z"></path>
<path fill="#3eb890" d="M13.932 32c-1.192 0.009-2.249-0.743-2.629-1.872l-7.458-22.159-0.039-0.123c-0.403-1.413 0.372-2.887 1.765-3.357 0.278-0.092 0.565-0.141 0.855-0.143 1.192-0.009 2.248 0.743 2.628 1.87l7.458 22.16c0.014 0.039 0.026 0.081 0.038 0.122 0.404 1.414-0.371 2.888-1.766 3.359-0.277 0.092-0.564 0.141-0.853 0.143h0.001z"></path>
<path fill="#cc2027" d="M21.343 23.277l5.202-1.779-1.7-5.050-5.208 1.76 1.706 5.068z"></path>
<path fill="#361238" d="M10.271 27.063l5.201-1.778-1.713-5.089-5.206 1.761 1.718 5.106z"></path>
<path fill="#65863a" d="M17.64 12.278l5.202-1.776-1.681-4.991-5.212 1.746 1.69 5.021z"></path>
<path fill="#1a937d" d="M6.567 16.058l5.202-1.776-1.701-5.055-5.212 1.746 1.711 5.085z"></path>
</svg>
