<?xml version="1.0" encoding="utf-8"?>
<!-- Generated by IcoMoon.io -->
<!DOCTYPE svg PUBLIC "-//W3C//DTD SVG 1.1//EN" "http://www.w3.org/Graphics/SVG/1.1/DTD/svg11.dtd">
<svg version="1.1" xmlns="http://www.w3.org/2000/svg" xmlns:xlink="http://www.w3.org/1999/xlink" width="32" height="32" viewBox="0 0 32 32">
<path fill="#2c4a7c" d="M19.378 21.624h2.262v-8.986l-2.262-2.262v11.248z"></path>
<path fill="#2c4a7c" d="M12.134 12.118l-0.367-0.367v-1.375h-0.52v0.856l-0.367-0.336v-0.52h-0.489v11.248h2.231v-11.248h-0.489v1.742z"></path>
<path fill="#2c4a7c" d="M13.051 10.376h0.489v2.262h-0.489v-2.262z"></path>
<path fill="#2c4a7c" d="M13.967 10.376h0.52v2.262h-0.52v-2.262z"></path>
<path fill="#2c4a7c" d="M16.627 12.118l-0.367-0.367v-1.375h-0.52v0.856l-0.336-0.336v-0.52h-0.52v11.248h2.231v-11.248h-0.489v1.742z"></path>
<path fill="#2c4a7c" d="M17.544 10.376h0.519v2.262h-0.519v-2.262z"></path>
<path fill="#2c4a7c" d="M18.46 10.376h0.519v2.262h-0.519v-2.262z"></path>
<path fill="#2c4a7c" d="M6.846 14.319h2.262v-1.681l-2.262-2.262v3.943z"></path>
<path fill="#2c4a7c" d="M5.012 10.376h0.52v2.262h-0.52v-2.262z"></path>
<path fill="#2c4a7c" d="M5.929 10.376h0.52v2.262h-0.52v-2.262z"></path>
<path fill="#2c4a7c" d="M6.846 21.624l2.262-2.262v-2.232l-2.262-2.262h-2.231v-4.493l-2.262 2.262v2.231l2.262 2.262h2.231v2.232h-2.231v-1.681h-2.262v1.681l2.262 2.262h2.231z"></path>
<path fill="#2c4a7c" d="M27.416 14.319h2.231v-1.681l-2.231-2.262v3.943z"></path>
<path fill="#2c4a7c" d="M25.551 10.376h0.52v2.262h-0.52v-2.262z"></path>
<path fill="#2c4a7c" d="M26.468 10.376h0.519v2.262h-0.519v-2.262z"></path>
<path fill="#2c4a7c" d="M27.416 21.624l2.231-2.262v-2.232l-2.231-2.262h-2.262v-4.493l-2.232 2.262v2.231l2.232 2.262h2.262v2.232h-2.262v-1.681h-2.232v1.681l2.232 2.262h2.262z"></path>
</svg>
