<?xml version="1.0" encoding="utf-8"?>
<!-- Generated by IcoMoon.io -->
<!DOCTYPE svg PUBLIC "-//W3C//DTD SVG 1.1//EN" "http://www.w3.org/Graphics/SVG/1.1/DTD/svg11.dtd">
<svg version="1.1" xmlns="http://www.w3.org/2000/svg" xmlns:xlink="http://www.w3.org/1999/xlink" width="32" height="32" viewBox="0 0 32 32">
<path fill="#64a9dc" d="M0 0h32v32h-32z"></path>
<path fill="#fff" d="M26.569 5.887l-21.647 8.349c-1.478 0.593-1.469 1.417-0.269 1.784l5.399 1.685 2.066 6.333c0.251 0.693 0.127 0.968 0.855 0.968 0.562 0 0.811-0.256 1.124-0.562 0.199-0.195 1.38-1.343 2.699-2.626l5.616 4.149c1.033 0.57 1.779 0.275 2.037-0.96l3.686-17.371c0.377-1.513-0.577-2.199-1.566-1.751zM10.899 17.319l12.169-7.677c0.608-0.368 1.165-0.17 0.707 0.236l-10.42 9.401-0.406 4.327-2.051-6.287z"></path>
</svg>
