<?xml version="1.0" encoding="utf-8"?>
<!-- Generated by IcoMoon.io -->
<!DOCTYPE svg PUBLIC "-//W3C//DTD SVG 1.1//EN" "http://www.w3.org/Graphics/SVG/1.1/DTD/svg11.dtd">
<svg version="1.1" xmlns="http://www.w3.org/2000/svg" xmlns:xlink="http://www.w3.org/1999/xlink" width="171" height="32" viewBox="0 0 171 32">
<path fill="#000" d="M10.52 29.328c-5.811 0-10.52-4.71-10.52-10.52l0.034-12.068c0-1.663 1.353-3.012 3.015-3.012 1.667 0 3.015 1.353 3.015 3.015v4.517h7.526c1.667 0 3.015 1.348 3.015 3.015s-1.348 3.015-3.009 3.015h-7.532v1.518c0 2.487 2.019 4.506 4.506 4.506h4.533c1.667 0 3.015 1.353 3.015 3.015s-1.348 3.015-3.009 3.015h-4.573z"></path>
<path fill="#000" d="M70.002 29.328c-5.81 0-10.485-4.71-10.485-10.52v-12.069c0-1.663 1.348-3.012 3.011-3.012 1.664 0 3.012 1.349 3.012 3.012v4.517h4.517c1.663 0 3.012 1.349 3.012 3.012s-1.349 3.009-3.013 3.009h-4.512v1.518c0 2.487 2.019 4.506 4.506 4.506h1.518c1.667 0 3.015 1.348 3.015 3.009s-1.348 3.009-3.009 3.009h-1.561z"></path>
<path fill="#000" d="M85.813 29.328c-5.81 0-10.486-4.71-10.486-10.52v-12.069c0-1.663 1.348-3.012 3.011-3.012 1.664 0 3.013 1.349 3.013 3.012v4.517h4.517c1.664 0 3.012 1.349 3.012 3.012s-1.348 3.009-3.009 3.009h-4.517v1.518c0 2.487 2.019 4.506 4.506 4.506h1.518c1.662 0 3.009 1.348 3.009 3.009s-1.348 3.009-3.009 3.009h-1.561z"></path>
<path fill="#000" d="M111.487 20.293c0-4.991 3.998-9.036 8.988-9.036h4.517c1.662 0 3.011 1.349 3.011 3.012s-1.349 3.015-3.011 3.015h-4.517c-1.665 0-3.013 1.348-3.013 3.015l0.053 6.024c0 1.662-1.348 3.015-3.009 3.015s-3.009-1.348-3.009-3.009v-6.025z"></path>
<path fill="#000" d="M45.963 11.258c-1.663 0-3.011 1.349-3.011 3.012v6.024c0 1.663-1.349 3.012-3.012 3.012s-3.012-1.348-3.012-3.012v-6.024c0-1.663-1.353-3.012-3.015-3.012s-3.015 1.349-3.015 3.012v6.024c0 1.663-1.348 3.012-3.015 3.012s-3.015-1.348-3.015-3.012v-6.024c0-1.663-1.348-3.012-3.015-3.012s-3.015 1.349-3.015 3.012v6.024c0 4.991 4.044 9.035 9.034 9.035 2.317 0 4.425-0.88 6.024-2.314 1.598 1.434 3.707 2.314 6.024 2.314 4.991 0 9.034-4.045 9.034-9.035v-6.024c-0.003-1.663-1.351-3.012-3.015-3.012z"></path>
<path fill="#000" d="M54.246 11.258c-1.664 0-3.011 1.349-3.011 3.012v12.049c0 1.667 1.348 3.015 3.011 3.015s3.012-1.348 3.012-3.009v-12.054c0-1.663-1.348-3.012-3.012-3.012z"></path>
<path fill="#000" d="M57.258 6.74c0 1.663-1.348 3.012-3.012 3.012s-3.012-1.348-3.012-3.012c0-1.663 1.348-3.012 3.012-3.012s3.012 1.348 3.012 3.012z"></path>
<path fill="#00acec" d="M146.723 11.637c1.477-4.613 3.284-7.602 5.364-9.769 1.55-1.617 2.35-2.131 1.438-0.35 0.403-0.32 0.982-0.751 1.431-0.98 2.515-1.182 2.336-0.186 0.604 0.879 4.73-1.688 4.565 0.463-0.435 1.539 4.085 0.080 8.432 2.679 9.684 8.213 0.17 0.767-0.032 0.692 0.751 0.831 1.694 0.304 3.286 0.282 4.836-0.208-0.17 1.145-1.683 1.891-4.043 2.381-0.879 0.181-1.055 0.133-0.005 0.373 1.289 0.293 2.732 0.368 4.256 0.293-1.188 1.369-3.084 2.067-5.428 2.099-1.465 5.353-4.815 9.188-9.055 11.596-9.955 5.649-24.449 4.83-31.714-5.438 4.767 3.741 11.83 4.565 17.077-0.65-3.436 0-4.329-2.573-1.603-3.963-2.582-0.027-4.219-0.842-5.183-2.32-0.366-0.559-0.368-0.603 0.226-1.033 0.655-0.474 1.547-0.683 2.471-0.753-2.671-0.763-4.302-2.157-4.868-4.029-0.186-0.619-0.216-0.588 0.413-0.747 0.618-0.156 1.409-0.24 2.12-0.275-2.099-1.273-3.35-2.831-3.67-4.554-0.304-1.63 0.011-1.211 1.227-0.746 5.444 2.083 10.874 4.32 14.089 7.633z"></path>
<path fill="#000" d="M109.21 18.787c0 1.053-0.442 3.003-2.013 3.003l-9.942-0.005c0.33 1.305 1.514 2.269 2.919 2.269h6.417c1.456 0 2.636 1.177 2.636 2.631s-1.177 2.637-2.631 2.637h-6.418c-4.986 0-9.034-4.075-9.034-9.79 0-5.012 4.048-8.283 9.039-8.283s9.039 3.372 9.039 7.526zM103.188 18.034c0-1.386-1.347-2.51-3.011-2.51s-3.012 1.124-3.012 2.51h6.023z"></path>
</svg>
