<?xml version="1.0" encoding="utf-8"?>
<!-- Generated by IcoMoon.io -->
<!DOCTYPE svg PUBLIC "-//W3C//DTD SVG 1.1//EN" "http://www.w3.org/Graphics/SVG/1.1/DTD/svg11.dtd">
<svg version="1.1" xmlns="http://www.w3.org/2000/svg" xmlns:xlink="http://www.w3.org/1999/xlink" width="113" height="32" viewBox="0 0 113 32">
<path fill="#2e3233" d="M74.315 10.142c2.46-0.593 5.451-0.041 7.057 2.058 0.683 0.823 0.974 1.873 1.228 2.892-1.080 0.017-2.165 0.017-3.245 0.017-0.47-2.326-3.664-3.256-5.359-1.664-1.194 1.3-1.41 3.232-1.163 4.916 0.264 1.293 0.786 2.796 2.12 3.331 1.901 0.71 4.148-0.556 4.402-2.604 1.101 0 2.206-0.004 3.31 0.021-0.23 1.969-1.18 4.020-3.108 4.827-2.992 1.3-7.277 0.912-9.010-2.185 0.275-1.263 0.584-2.577 0.299-3.867-0.161-0.953-0.659-1.794-0.967-2.7-0.006-2.463 2.107-4.556 4.436-5.043z"></path>
<path fill="#9de60b" d="M41.371 10.501c1.183-0.010 2.367-0.010 3.551-0.014 0.703 3.104 1.094 6.281 1.952 9.352 0.861-2.546 1.259-5.218 1.99-7.801 0.216-0.782 0.83-1.609 1.729-1.55 0.974-0.117 1.637 0.786 1.836 1.636 0.7 2.539 1.159 5.143 1.938 7.665 0.895-3.043 1.386-6.182 2.042-9.284 1.155-0.014 2.309-0.014 3.465-0.003-0.968 3.894-2.062 7.753-3.054 11.64-0.244 0.968-0.669 2.072-1.705 2.429-1.173 0.268-2.237-0.666-2.522-1.753-0.73-2.333-1.259-4.728-1.979-7.067-0.58 2.326-1.173 4.645-1.812 6.954-0.24 1.033-1.146 2.092-2.309 1.887-1.122-0.127-1.675-1.242-1.921-2.216-1.061-3.959-2.142-7.915-3.202-11.874z"></path>
<path fill="#2e3233" d="M83.382 10.499c1.061-0.004 2.124-0.004 3.184-0.007-0.007 1.167-0.017 2.333 0.075 3.493 1.705 0.12 3.575-0.364 5.146 0.501 1.355 0.727 2.137 2.264 2.127 3.78 0.021 2.11-0.007 4.22 0.003 6.333-1.033 0.007-2.062 0.010-3.091 0.013-0.021-2.027 0.024-4.055-0.010-6.082 0.041-0.686-0.447-1.403-1.153-1.482-1.029-0.13-2.069-0.062-3.101-0.041 0.007 2.532 0.004 5.067 0.004 7.603-1.060-0.003-2.12-0.003-3.18-0.003-0.004-4.703 0.003-9.404-0.004-14.107zM107.775 10.495h3.015c-0.003 1.061-0.003 2.117-0.007 3.177 0.806 0 1.612 0 2.422 0.004-0.004 0.782-0.004 1.568-0.004 2.35h-2.447c0.062 1.791-0.133 3.602 0.104 5.386 0.542 0.669 1.499 0.573 2.264 0.789-0.010 0.799-0.013 1.599-0.013 2.402-1.733 0.038-4.1 0.264-4.988-1.619-0.765-2.22-0.192-4.648-0.364-6.95-0.775-0.007-1.551-0.011-2.326-0.021 0-0.776-0.004-1.551-0.004-2.322 0.782-0.010 1.565-0.017 2.35-0.021-0.003-1.057-0.003-2.113-0.003-3.174z"></path>
<path fill="#9de60b" d="M69.791 19.878c0.055-2.028-0.395-4.316-2.189-5.53-2.347-1.492-6.103-1.29-7.684 1.231-1.321 2.223-1.393 5.373 0.398 7.373 1.715 1.938 4.755 2.041 7.002 1.071 1.239-0.504 1.922-1.709 2.388-2.889-0.989-0.031-1.976-0.038-2.964-0.014-0.875 1.039-2.419 1.458-3.643 0.806-0.779-0.377-0.936-1.29-1.18-2.024 2.624-0.041 5.249-0.004 7.874-0.024zM61.838 17.761c0.354-1.081 1.246-2.024 2.484-1.829 1.221-0.199 2.051 0.786 2.394 1.832-1.626 0.048-3.252 0.045-4.879-0.003z"></path>
<path fill="#2e3233" d="M104.91 17.205c-0.062-1.877-1.719-3.359-3.527-3.551-1.791-0.185-3.819-0.185-5.297 1.002-0.785 0.569-1.036 1.547-1.239 2.443 0.923 0.024 1.846 0.028 2.772 0.021 0.525-1.571 2.58-1.771 3.815-0.961 0.467 0.391 0.426 1.050 0.559 1.595-1.935 0.076-4.062-0.298-5.781 0.817-1.636 0.961-1.935 3.318-0.984 4.855 0.665 0.998 1.966 1.184 3.074 1.18 2.209 0.010 4.419-0.004 6.628 0-0.021-2.471 0.041-4.938-0.021-7.401zM97.809 21.723c-0.144-0.542 0.164-1.036 0.343-1.52 1.228-0.278 2.49-0.316 3.75-0.288 0.007 0.861 0.007 1.719 0.004 2.58-1.366-0.086-3.040 0.346-4.096-0.772z"></path>
<path fill="#9de60b" d="M21.882 1.997c-4.008-2.257-9.003-2.597-13.316-1.039-2.833 1.020-5.399 2.917-6.984 5.5-1.437 2.328-1.976 5.233-1.281 7.898 0.695 2.958 2.745 5.436 5.241 7.093-0.47 1.365-0.933 2.73-1.369 4.105 1.578-0.82 3.138-1.675 4.71-2.509 1.896 0.607 3.889 0.898 5.879 0.834-0.519-1.521-0.642-3.159-0.406-4.745 0.377-2.201 1.568-4.216 3.214-5.711 2.771-2.595 6.701-3.692 10.439-3.427-0.699-3.427-3.107-6.326-6.129-7.998zM11.139 8.214c-0.278 1.343-2.079 1.99-3.13 1.091-1.218-0.859-0.877-2.993 0.555-3.421 1.402-0.541 2.997 0.883 2.575 2.33zM20.873 7.824c0.012 1.546-2.046 2.509-3.204 1.459-1.201-0.859-0.861-2.952 0.549-3.386 1.261-0.496 2.753 0.568 2.655 1.927z"></path>
<path fill="#2e3233" d="M37.827 17.202c-0.978-2.216-2.825-3.971-4.967-5.057-3.782-1.919-8.488-1.904-12.258 0.045-2.622 1.347-4.809 3.757-5.432 6.691-0.512 2.158-0.051 4.483 1.093 6.367 1.705 2.827 4.784 4.631 7.988 5.211 2.32 0.472 4.719 0.195 6.971-0.461 1.349 0.527 2.558 1.376 3.868 2.003-0.336-1.131-0.695-2.259-1.082-3.374 1.465-1.047 2.802-2.347 3.606-3.983 1.195-2.278 1.267-5.098 0.213-7.441zM24.663 18.049c-0.332 1.047-1.859 1.363-2.593 0.563-0.812-0.736-0.496-2.279 0.568-2.607 1.183-0.498 2.544 0.863 2.026 2.044zM32.369 18.194c-0.404 0.943-1.816 1.16-2.513 0.431-0.338-0.304-0.42-0.765-0.555-1.172 0.181-0.734 0.67-1.499 1.504-1.531 1.154-0.158 2.167 1.242 1.564 2.273z"></path>
</svg>
