<?xml version="1.0" encoding="utf-8"?>
<!-- Generated by IcoMoon.io -->
<!DOCTYPE svg PUBLIC "-//W3C//DTD SVG 1.1//EN" "http://www.w3.org/Graphics/SVG/1.1/DTD/svg11.dtd">
<svg version="1.1" xmlns="http://www.w3.org/2000/svg" xmlns:xlink="http://www.w3.org/1999/xlink" width="108" height="32" viewBox="0 0 108 32">
<path fill="#272525" d="M105.91 19.109c-0.062 0.308-0.169 0.57-0.316 0.802s-0.339 0.416-0.585 0.562c-0.239 0.139-0.539 0.216-0.894 0.216-0.347 0-0.647-0.069-0.886-0.216-0.247-0.146-0.439-0.331-0.593-0.562-0.147-0.231-0.254-0.493-0.324-0.802s-0.1-0.616-0.1-0.932c0-0.324 0.031-0.647 0.093-0.947 0.062-0.308 0.169-0.578 0.316-0.809 0.146-0.239 0.339-0.424 0.585-0.578 0.239-0.147 0.54-0.224 0.894-0.224 0.347 0 0.64 0.077 0.878 0.224s0.439 0.347 0.593 0.585 0.262 0.516 0.331 0.817c0.069 0.308 0.1 0.616 0.1 0.932s-0.031 0.624-0.093 0.932zM107.96 16.621c-0.147-0.516-0.362-0.963-0.655-1.356-0.301-0.385-0.67-0.701-1.117-0.932s-0.986-0.354-1.61-0.354c-0.493 0-0.94 0.1-1.348 0.293s-0.748 0.508-1.010 0.932h-0.031v-1.009h-2.065v10.687h2.173v-3.753h0.031c0.262 0.385 0.609 0.678 1.017 0.879 0.416 0.2 0.863 0.301 1.356 0.301 0.578 0 1.086-0.115 1.526-0.339 0.431-0.223 0.794-0.524 1.086-0.902s0.508-0.809 0.647-1.302c0.147-0.493 0.216-1.001 0.216-1.533 0-0.562-0.069-1.102-0.216-1.618v0.008zM97.242 19.109c-0.062 0.308-0.169 0.57-0.316 0.802s-0.339 0.416-0.586 0.562c-0.239 0.139-0.539 0.216-0.894 0.216-0.347 0-0.64-0.069-0.886-0.216s-0.439-0.331-0.593-0.562c-0.146-0.231-0.254-0.493-0.323-0.802s-0.1-0.616-0.1-0.932c0-0.324 0.031-0.647 0.092-0.947 0.062-0.308 0.169-0.578 0.316-0.809 0.147-0.239 0.339-0.424 0.586-0.578 0.239-0.147 0.539-0.224 0.894-0.224 0.347 0 0.64 0.077 0.879 0.224s0.439 0.347 0.593 0.585c0.154 0.239 0.262 0.516 0.332 0.817 0.069 0.308 0.1 0.616 0.1 0.932s-0.031 0.624-0.092 0.932zM98.637 15.265c-0.293-0.385-0.67-0.701-1.117-0.932s-0.986-0.354-1.611-0.354c-0.493 0-0.94 0.1-1.348 0.293s-0.747 0.508-1.009 0.932h-0.031v-1.009h-2.065v10.687h2.173v-3.753h0.031c0.262 0.385 0.609 0.678 1.017 0.879 0.416 0.2 0.863 0.301 1.356 0.301 0.586 0 1.086-0.115 1.526-0.339 0.431-0.223 0.793-0.524 1.086-0.902s0.509-0.809 0.655-1.302c0.139-0.493 0.216-1.001 0.216-1.533 0-0.562-0.070-1.102-0.216-1.618s-0.362-0.963-0.663-1.356v0.008zM84.335 17.884l1.425-4.015h0.031l1.379 4.015h-2.836zM84.567 11.173l-4.138 10.934h2.419l0.856-2.435h4.091l0.824 2.435h2.496l-4.091-10.934h-2.458zM80.252 18.639c-0.147-0.247-0.331-0.462-0.57-0.632-0.231-0.169-0.501-0.301-0.802-0.408-0.301-0.1-0.609-0.185-0.925-0.262-0.308-0.070-0.609-0.139-0.902-0.201s-0.563-0.131-0.786-0.208c-0.231-0.077-0.416-0.177-0.555-0.301-0.147-0.123-0.216-0.277-0.216-0.478 0-0.162 0.038-0.293 0.123-0.393s0.185-0.169 0.301-0.223c0.116-0.054 0.247-0.085 0.393-0.1s0.277-0.023 0.401-0.023c0.385 0 0.724 0.077 1.010 0.223s0.447 0.431 0.47 0.847h2.065c-0.039-0.493-0.169-0.894-0.377-1.218s-0.47-0.578-0.786-0.77-0.678-0.331-1.079-0.416c-0.401-0.085-0.817-0.123-1.248-0.123s-0.847 0.039-1.256 0.115c-0.408 0.077-0.778 0.208-1.102 0.401-0.331 0.193-0.593 0.447-0.786 0.77-0.201 0.324-0.301 0.748-0.301 1.256 0 0.347 0.069 0.64 0.216 0.878 0.139 0.239 0.331 0.439 0.562 0.601 0.239 0.154 0.501 0.285 0.802 0.385s0.609 0.185 0.925 0.254c0.778 0.162 1.379 0.324 1.818 0.485 0.431 0.162 0.647 0.408 0.647 0.732 0 0.193-0.046 0.354-0.139 0.485s-0.208 0.231-0.347 0.308-0.293 0.131-0.462 0.169c-0.169 0.039-0.331 0.054-0.485 0.054-0.216 0-0.424-0.023-0.617-0.077-0.2-0.054-0.377-0.131-0.531-0.239s-0.277-0.247-0.377-0.416c-0.1-0.169-0.147-0.37-0.147-0.601h-2.065c0.023 0.531 0.139 0.971 0.362 1.325 0.216 0.355 0.501 0.632 0.84 0.848s0.732 0.37 1.171 0.462c0.439 0.093 0.886 0.139 1.348 0.139 0.447 0 0.894-0.046 1.325-0.131s0.817-0.239 1.156-0.454 0.609-0.501 0.817-0.848c0.208-0.354 0.316-0.786 0.316-1.31 0-0.37-0.069-0.678-0.216-0.925l0.007 0.016zM71.259 11.82h-2.173v2.373h-1.318v1.456h1.318v4.67c0 0.401 0.069 0.717 0.2 0.963s0.316 0.431 0.547 0.57c0.231 0.131 0.493 0.223 0.794 0.27s0.624 0.069 0.956 0.069c0.216 0 0.431-0.008 0.663-0.015 0.223-0.008 0.431-0.031 0.609-0.062v-1.688c-0.1 0.023-0.208 0.038-0.323 0.046s-0.231 0.015-0.354 0.015c-0.37 0-0.609-0.062-0.732-0.185s-0.185-0.37-0.185-0.732v-3.922h1.595v-1.456h-1.595v-2.373zM65.026 19.048c0 0.123-0.015 0.285-0.038 0.493-0.023 0.201-0.092 0.409-0.208 0.601-0.115 0.201-0.285 0.37-0.524 0.516-0.231 0.146-0.57 0.216-0.994 0.216-0.17 0-0.339-0.016-0.509-0.046-0.162-0.031-0.308-0.085-0.431-0.162s-0.216-0.177-0.293-0.316c-0.069-0.131-0.108-0.293-0.108-0.493 0-0.208 0.039-0.37 0.108-0.508 0.069-0.131 0.169-0.239 0.285-0.331 0.115-0.085 0.254-0.154 0.416-0.208s0.316-0.093 0.485-0.124c0.169-0.031 0.347-0.054 0.524-0.077s0.339-0.046 0.501-0.077 0.308-0.069 0.447-0.115 0.254-0.108 0.347-0.193v0.809l-0.008 0.015zM67.198 20.35v-4.122c0-0.478-0.108-0.863-0.323-1.156s-0.493-0.516-0.825-0.678c-0.339-0.162-0.709-0.27-1.117-0.331-0.408-0.054-0.809-0.085-1.21-0.085-0.44 0-0.879 0.046-1.31 0.131s-0.824 0.231-1.171 0.439c-0.347 0.208-0.632 0.478-0.855 0.809-0.223 0.339-0.354 0.763-0.385 1.271h2.173c0.038-0.431 0.185-0.732 0.431-0.917s0.578-0.277 1.010-0.277c0.193 0 0.377 0.015 0.547 0.039s0.316 0.077 0.447 0.154c0.131 0.077 0.231 0.185 0.308 0.324s0.115 0.323 0.115 0.562c0.008 0.223-0.054 0.393-0.201 0.516-0.146 0.115-0.339 0.208-0.585 0.27s-0.524 0.108-0.84 0.139-0.64 0.069-0.963 0.123c-0.324 0.054-0.647 0.123-0.971 0.208s-0.609 0.216-0.855 0.393c-0.254 0.177-0.455 0.408-0.616 0.693-0.162 0.293-0.239 0.663-0.239 1.11 0 0.408 0.069 0.763 0.208 1.056 0.139 0.301 0.331 0.539 0.57 0.732 0.247 0.192 0.531 0.339 0.855 0.431s0.678 0.139 1.056 0.139c0.493 0 0.971-0.069 1.441-0.216s0.878-0.393 1.225-0.747c0.008 0.131 0.031 0.262 0.054 0.393 0.023 0.123 0.062 0.254 0.1 0.378h2.204c-0.1-0.162-0.177-0.409-0.216-0.732s-0.062-0.67-0.062-1.025v-0.024zM58.245 14.879c-0.216-0.277-0.509-0.501-0.878-0.655-0.37-0.162-0.847-0.239-1.433-0.239-0.408 0-0.824 0.108-1.256 0.316s-0.778 0.547-1.056 1.002h-0.046v-4.122h-2.173v10.934h2.173v-4.153c0-0.809 0.131-1.387 0.401-1.741 0.262-0.354 0.694-0.524 1.287-0.524 0.516 0 0.886 0.162 1.086 0.485s0.308 0.809 0.308 1.464v4.469h2.173v-4.87c0-0.493-0.046-0.94-0.131-1.341s-0.239-0.747-0.455-1.025zM46.756 18.717h-0.031l-1.865-7.536h-2.25l-1.896 7.443h-0.031l-1.734-7.443h-2.404l2.897 10.934h2.435l1.818-7.444h0.031l1.849 7.444h2.389l1.31-4.854 1.634-6.079h-2.358l-1.795 7.536z"></path>
<path fill="#fefefe" d="M16.166 28.695c-2.658 0-5.139-0.801-7.212-2.165l-5.039 1.61 1.634-4.87c-1.572-2.158-2.496-4.816-2.496-7.682 0-7.228 5.879-13.107 13.107-13.107s13.107 5.879 13.107 13.107c0 7.227-5.879 13.107-13.107 13.107h0.008zM16.166 0c-8.607 0-15.588 6.981-15.588 15.588 0 2.943 0.817 5.702 2.234 8.052l-2.812 8.36 8.63-2.766c2.234 1.233 4.8 1.942 7.536 1.942 8.607 0 15.588-6.981 15.588-15.588s-6.981-15.588-15.588-15.588z"></path>
<path fill="#000" d="M16.166 2.481c-7.228 0-13.107 5.879-13.107 13.107 0 2.866 0.925 5.525 2.496 7.682l-1.634 4.87 5.039-1.61c2.073 1.372 4.546 2.165 7.212 2.165 7.228 0 13.107-5.879 13.107-13.107s-5.879-13.107-13.107-13.107h-0.008z"></path>
<path fill="#fefefe" d="M12.506 9.139c-0.254-0.609-0.447-0.632-0.832-0.647-0.131-0.008-0.277-0.015-0.439-0.015-0.501 0-1.025 0.146-1.341 0.47-0.385 0.393-1.341 1.31-1.341 3.19s1.372 3.699 1.556 3.953c0.193 0.254 2.674 4.168 6.526 5.764 3.013 1.248 3.907 1.133 4.592 0.986 1.002-0.216 2.258-0.956 2.574-1.849s0.316-1.657 0.223-1.819c-0.092-0.162-0.347-0.254-0.732-0.447s-2.258-1.117-2.612-1.241c-0.347-0.131-0.678-0.085-0.94 0.285-0.37 0.516-0.732 1.040-1.025 1.356-0.231 0.247-0.609 0.277-0.925 0.146-0.424-0.177-1.61-0.593-3.074-1.896-1.133-1.009-1.903-2.265-2.127-2.643-0.224-0.385-0.023-0.609 0.154-0.817 0.193-0.239 0.377-0.408 0.57-0.632s0.301-0.339 0.424-0.601c0.131-0.254 0.039-0.516-0.054-0.709s-0.863-2.073-1.179-2.835z"></path>
</svg>
