<svg viewBox="0 0 24 24" xmlns="http://www.w3.org/2000/svg"><path d="M4.5 24.002a.5.5 0 0 1-.5-.5v-3.44c-2.545-2.186-4-5.292-4-8.56C0 5.161 5.383.002 12 .002s12 5.159 12 11.5-5.383 11.5-12 11.5c-1.537 0-3.032-.275-4.448-.817l-2.787 1.741a.496.496 0 0 1-.265.076zm7.5-23c-6.065 0-11 4.71-11 10.5 0 3.046 1.392 5.94 3.818 7.941a.503.503 0 0 1 .182.386V22.6l2.235-1.397a.503.503 0 0 1 .454-.039c1.367.556 2.817.838 4.311.838 6.065 0 11-4.71 11-10.5s-4.935-10.5-11-10.5z"/><path d="M4.5 15.002a.5.5 0 0 1-.354-.854l6-6a.499.499 0 0 1 .679-.026l3.238 2.775 5.197-2.835a.5.5 0 0 1 .593.793l-6 6a.5.5 0 0 1-.679.026l-3.238-2.775-5.197 2.835a.497.497 0 0 1-.239.061zm5.5-4c.117 0 .233.041.325.121l3.148 2.698 3.218-3.217-2.452 1.337a.498.498 0 0 1-.564-.06l-3.148-2.698L7.309 12.4l2.452-1.337a.494.494 0 0 1 .239-.061z"/></svg>