<svg height="100" viewBox="0 0 100 100" width="100" xmlns="http://www.w3.org/2000/svg"><path d="M12.502 85.781V14.218C12.502 9.125 16.131 5 20.615 5c4.48 0 8.111 4.125 8.111 9.218v40.271l20.279-21.833c2.349-2.548 4.269-4.125 7.149-4.125 4.375 0 7.15 4.004 7.15 8.249 0 3.154-1.492 5.581-3.734 8.006L46.764 57.277l15.264 23.41c1.389 2.183 2.029 3.881 2.029 5.942 0 4.974-3.524 8.369-7.58 8.369-3.202 0-5.123-1.213-7.044-4.245L35.236 68.559l-6.51 6.672v10.552c0 5.096-3.631 9.219-8.111 9.219-4.484-.002-8.113-4.125-8.113-9.221m65.252-10.89c5.385 0 9.748-4.389 9.748-9.802s-4.363-9.803-9.748-9.803-9.749 4.39-9.749 9.803 4.364 9.802 9.749 9.802"/></svg>