<svg viewBox="0 0 64 64" xmlns="http://www.w3.org/2000/svg"><path d="M60.313 29.152C60.313 13.052 47.261 0 31.16 0S2.008 13.052 2.008 29.152 15.06 58.304 31.16 58.304a29.08 29.08 0 0 0 8.986-1.427C44.345 63.385 56.105 64 60.398 64c1 0 1.594-.033 1.594-.033-8.737-4.934-10.678-11.012-11.112-13.388 5.786-5.328 9.433-12.942 9.433-21.427zm-42.859 4.667a4.666 4.666 0 1 1 0-9.332 4.666 4.666 0 0 1 0 9.332zm13.706 0a4.666 4.666 0 1 1 0-9.332 4.666 4.666 0 0 1 0 9.332zm13.709 0a4.666 4.666 0 1 1 0-9.332 4.666 4.666 0 0 1 0 9.332z"/></svg>