<svg xmlns="http://www.w3.org/2000/svg" width="1033.746" height="220.695" viewBox="0 0 1033.746 220.695"><path d="M1033.746 99.838v-18.18h-22.576V53.395l-.76.234-21.205 6.487-.418.127V81.66h-33.47V69.73c0-5.556 1.243-9.807 3.69-12.642 2.432-2.8 5.91-4.225 10.344-4.225 3.19 0 6.49.75 9.812 2.232l.833.372V36.32l-.392-.143c-3.1-1.114-7.314-1.675-12.54-1.675-6.584 0-12.567 1.433-17.785 4.273-5.22 2.844-9.328 6.904-12.205 12.066-2.867 5.157-4.322 11.112-4.322 17.702v13.116h-15.72v18.18h15.72v76.59h22.568v-76.59h33.47v48.67c0 20.046 9.454 30.204 28.1 30.204 3.065 0 6.29-.36 9.583-1.062 3.353-.722 5.636-1.443 6.98-2.213l.297-.176v-18.347l-.918.607c-1.226.816-2.75 1.483-4.54 1.98-1.795.504-3.295.757-4.457.757-4.368 0-7.6-1.177-9.605-3.5-2.028-2.344-3.057-6.443-3.057-12.177V99.838h22.576zm-167.11 60.422c-8.192 0-14.65-2.716-19.2-8.066-4.58-5.377-6.9-13.043-6.9-22.783 0-10.048 2.32-17.913 6.9-23.385 4.555-5.436 10.95-8.195 19.015-8.195 7.826 0 14.055 2.635 18.517 7.836 4.484 5.228 6.76 13.03 6.76 23.196 0 10.29-2.14 18.196-6.36 23.484-4.19 5.248-10.493 7.914-18.732 7.914m1.003-80.885c-15.627 0-28.04 4.58-36.89 13.61-8.843 9.032-13.327 21.53-13.327 37.153 0 14.838 4.378 26.773 13.012 35.468 8.634 8.698 20.384 13.104 34.92 13.104 15.15 0 27.314-4.643 36.16-13.8 8.845-9.145 13.326-21.526 13.326-36.783 0-15.07-4.205-27.094-12.502-35.73-8.3-8.642-19.977-13.022-34.698-13.022m-86.602 0c-10.63 0-19.423 2.72-26.14 8.08-6.758 5.393-10.186 12.466-10.186 21.025 0 4.45.74 8.4 2.196 11.753 1.465 3.363 3.732 6.324 6.744 8.81 2.99 2.464 7.603 5.046 13.717 7.673 5.14 2.115 8.973 3.904 11.408 5.314 2.38 1.382 4.07 2.77 5.023 4.124.927 1.324 1.397 3.136 1.397 5.372 0 6.367-4.768 9.465-14.58 9.465-3.638 0-7.79-.76-12.336-2.257a46.339 46.339 0 0 1-12.635-6.406l-.937-.672v21.727l.344.16c3.193 1.474 7.22 2.717 11.964 3.695 4.736.98 9.04 1.477 12.777 1.477 11.535 0 20.824-2.732 27.602-8.125 6.82-5.43 10.278-12.67 10.278-21.526 0-6.388-1.86-11.866-5.53-16.284-3.642-4.382-9.965-8.405-18.784-11.96-7.027-2.82-11.528-5.162-13.385-6.96-1.79-1.735-2.7-4.19-2.7-7.3 0-2.755 1.123-4.963 3.426-6.75 2.322-1.798 5.553-2.712 9.605-2.712 3.76 0 7.607.594 11.433 1.758 3.823 1.164 7.18 2.723 9.984 4.63l.922.63v-20.61l-.354-.152c-2.586-1.11-5.996-2.058-10.138-2.828-4.123-.765-7.863-1.15-11.116-1.15M685.88 160.26c-8.19 0-14.65-2.716-19.2-8.066-4.58-5.377-6.896-13.04-6.896-22.783 0-10.048 2.32-17.913 6.9-23.385 4.55-5.436 10.946-8.195 19.014-8.195 7.822 0 14.05 2.635 18.514 7.836 4.485 5.228 6.76 13.03 6.76 23.196 0 10.29-2.14 18.196-6.36 23.484-4.192 5.248-10.49 7.914-18.733 7.914m1.005-80.885c-15.63 0-28.044 4.58-36.89 13.61-8.843 9.032-13.33 21.53-13.33 37.153 0 14.844 4.38 26.773 13.014 35.468 8.633 8.698 20.382 13.104 34.92 13.104 15.145 0 27.313-4.643 36.16-13.8 8.842-9.145 13.325-21.526 13.325-36.783 0-15.07-4.206-27.094-12.505-35.73-8.303-8.642-19.977-13.022-34.695-13.022M602.41 98.07V81.658h-22.293v94.767h22.292v-48.477c0-8.243 1.868-15.015 5.556-20.13 3.64-5.054 8.493-7.615 14.417-7.615 2.008 0 4.262.33 6.703.986 2.416.65 4.166 1.357 5.198 2.1l.937.68V81.496l-.36-.155c-2.076-.88-5.013-1.326-8.73-1.326-5.6 0-10.614 1.8-14.908 5.344-3.77 3.115-6.493 7.386-8.576 12.712h-.237zm-62.214-18.695c-10.227 0-19.35 2.193-27.108 6.516-7.775 4.334-13.788 10.52-17.88 18.386-4.072 7.847-6.14 17.013-6.14 27.235 0 8.955 2.005 17.172 5.968 24.414 3.965 7.254 9.577 12.93 16.68 16.865 7.095 3.93 15.294 5.923 24.372 5.923 10.594 0 19.64-2.118 26.89-6.295l.294-.168v-20.423l-.937.684c-3.285 2.394-6.956 4.304-10.906 5.68-3.94 1.375-7.533 2.07-10.683 2.07-8.747 0-15.77-2.737-20.866-8.133-5.107-5.403-7.697-12.99-7.697-22.537 0-9.607 2.7-17.39 8.024-23.13 5.307-5.726 12.342-8.63 20.908-8.63 7.327 0 14.467 2.48 21.222 7.38l.935.68V84.37l-.302-.17c-2.542-1.422-6.01-2.597-10.313-3.488-4.286-.89-8.478-1.337-12.46-1.337m-66.482 2.284h-22.292v94.765h22.292V81.66zm-10.918-40.372c-3.67 0-6.87 1.25-9.498 3.724-2.64 2.482-3.98 5.607-3.98 9.295 0 3.63 1.323 6.698 3.938 9.114 2.598 2.41 5.808 3.63 9.54 3.63 3.73 0 6.953-1.22 9.582-3.625 2.646-2.42 3.988-5.487 3.988-9.118 0-3.56-1.306-6.652-3.88-9.195-2.57-2.538-5.832-3.824-9.69-3.824m-55.62 33.38v101.757h22.75V44.19H398.44l-40.022 98.22-38.84-98.22H286.81v132.234h21.38V74.657h.733l41.013 101.768h16.134l40.373-101.758h.734z" fill="#706D6E"/><path d="M104.868 104.868H0V0h104.868v104.868z" fill="#F1511B"/><path d="M220.654 104.868H115.788V0h104.866v104.868z" fill="#80CC28"/><path d="M104.865 220.695H0V115.828h104.865v104.867z" fill="#00ADEF"/><path d="M220.654 220.695H115.788V115.828h104.866v104.867z" fill="#FBBC09"/></svg>