<svg xmlns="http://www.w3.org/2000/svg" width="46.699" height="47.375" viewBox="10.589 10.32 46.699 47.375"><path fill="#FFF" d="M34.533 52.56c-9.387 0-20.053-11.306-19.2-20.693.853-8.96 12.8-17.28 21.653-16 7.787 1.066 14.72 10.88 14.293 18.667-.426 8.212-8.534 18.027-16.747 18.027z"/><path fill="#00AFF0" d="M41.254 57.36c-.64-.214-1.6-.427-2.134-.64-.64-.32-1.387-.32-3.733-.214-2.24.106-3.414 0-5.013-.214-8.534-1.492-15.36-7.68-17.814-16.212-.427-1.6-.533-2.453-.533-6.293 0-4.16-.107-4.48-.64-6.187-3.093-8.427 3.2-17.28 12.16-17.28 1.813 0 4.053.534 5.333 1.173.854.427 1.387.533 4.693.533 2.987 0 4.16.107 5.653.534 6.72 1.707 12.16 6.08 15.04 12.16 1.813 3.733 2.454 7.574 2.026 11.946-.213 2.348-.213 2.56.32 3.947 1.707 5.014.107 10.773-4.053 14.187-1.282 1.067-3.84 2.24-5.44 2.667-1.602.32-4.16.32-5.762-.107h-.104zm-2.88-8.214c3.52-.746 6.612-2.88 7.786-5.44 1.493-3.093 1.066-6.72-.96-8.96-1.707-1.92-4.267-2.986-10.347-4.48-4.054-.96-5.014-1.386-5.867-2.346-.747-.854-.854-1.493-.213-2.453.64-1.067 2.24-1.707 4.373-1.813 3.094-.213 4.48.533 6.293 3.413 1.386 2.134 2.772 2.667 4.587 1.813 2.346-1.173 2.133-5.013-.428-7.253-2.454-2.026-5.12-2.88-9.6-2.88-4.694 0-7.895.96-10.028 3.093-1.707 1.707-2.026 2.667-2.026 5.333 0 2.773.32 3.626 2.133 5.227 1.92 1.813 3.52 2.454 9.278 3.84 4.054.96 5.12 1.493 6.08 2.56.428.534.64.96.64 1.92 0 1.067-.106 1.28-.96 2.134-1.28 1.28-3.2 1.812-5.652 1.707-2.88-.213-4.16-1.066-5.653-4.053-1.067-2.026-1.92-2.773-3.307-2.773-3.094 0-4.16 2.56-2.56 5.866 1.387 2.88 4.16 4.8 7.68 5.547 2.133.427 6.827.427 8.854 0h-.107z"/></svg>