<svg height="512" viewBox="0 0 512 512" width="512" xmlns="http://www.w3.org/2000/svg"><path fill="#64a9dc" d="M0 0h512v512H0z"/><path d="M425.1 94.198L78.755 227.785c-23.64 9.484-23.5 22.67-4.31 28.548l86.38 26.96 33.052 101.333c4.018 11.09 2.038 15.49 13.684 15.49 8.988 0 12.975-4.098 17.98-8.988 3.184-3.115 22.085-21.49 43.188-42.01l89.852 66.387c16.534 9.122 28.472 4.396 32.59-15.356l58.98-277.94c6.038-24.21-9.23-35.19-25.05-28.012zM174.38 277.1l194.703-122.838c9.72-5.895 18.632-2.726 11.314 3.77L213.682 308.45l-6.49 69.234L174.38 277.1z" fill="#fff"/></svg>