<svg xmlns="http://www.w3.org/2000/svg" width="320.315" height="60.077" viewBox="0 .001 320.315 60.077"><g transform="translate(-260.788)"><linearGradient id="a" x1="-768.148" x2="-768.148" y1="1639.67" y2="1591.297" gradientUnits="userSpaceOnUse" gradientTransform="matrix(1 0 0 -1 1045.93 1646.28)"><stop offset="0" stop-color="#373736"/><stop offset="1" stop-color="#191918"/></linearGradient><path fill="url(#a)" d="M280.538 55.062c-10.91 0-19.75-8.842-19.75-19.75l.063-22.657a5.66 5.66 0 0 1 11.32.006v8.48h14.13c3.13 0 5.66 2.53 5.66 5.66s-2.53 5.66-5.65 5.66h-14.14v2.85c0 4.67 3.79 8.46 8.46 8.46h8.51a5.661 5.661 0 0 1 .01 11.32h-8.585z"/><linearGradient id="b" x1="-659.271" x2="-659.271" y1="1639.669" y2="1591.297" gradientUnits="userSpaceOnUse" gradientTransform="matrix(1 0 0 -1 1045.93 1646.28)"><stop offset="0" stop-color="#373736"/><stop offset="1" stop-color="#191918"/></linearGradient><path fill="url(#b)" d="M392.21 55.062c-10.907 0-19.685-8.842-19.685-19.75V12.654a5.654 5.654 0 0 1 11.307 0v8.48h8.48c3.123 0 5.655 2.532 5.655 5.655s-2.532 5.65-5.656 5.65h-8.47v2.85c0 4.67 3.79 8.46 8.46 8.46h2.85a5.65 5.65 0 0 1 .01 11.3h-2.93z"/><linearGradient id="c" x1="-629.586" x2="-629.586" y1="1639.669" y2="1591.297" gradientUnits="userSpaceOnUse" gradientTransform="matrix(1 0 0 -1 1045.93 1646.28)"><stop offset="0" stop-color="#373736"/><stop offset="1" stop-color="#191918"/></linearGradient><path fill="url(#c)" d="M421.894 55.062c-10.908 0-19.686-8.842-19.686-19.75V12.654a5.655 5.655 0 0 1 11.308 0v8.48h8.48c3.124 0 5.655 2.532 5.655 5.655s-2.53 5.65-5.65 5.65h-8.48v2.85c0 4.67 3.79 8.46 8.46 8.46h2.85a5.65 5.65 0 0 1 0 11.3h-2.93z"/><linearGradient id="d" x1="-560.332" x2="-560.332" y1="1639.67" y2="1591.297" gradientUnits="userSpaceOnUse" gradientTransform="matrix(1 0 0 -1 1045.93 1646.28)"><stop offset="0" stop-color="#373736"/><stop offset="1" stop-color="#191918"/></linearGradient><path fill="url(#d)" d="M470.094 38.1c0-9.37 7.506-16.964 16.874-16.964h8.48c3.12 0 5.652 2.532 5.652 5.655s-2.532 5.66-5.652 5.66h-8.48a5.655 5.655 0 0 0-5.657 5.66l.1 11.31c0 3.12-2.53 5.66-5.65 5.66a5.65 5.65 0 0 1-5.65-5.65V38.12z"/><linearGradient id="e" x1="-721.465" x2="-721.465" y1="1639.67" y2="1591.299" gradientUnits="userSpaceOnUse" gradientTransform="matrix(1 0 0 -1 1045.93 1646.28)"><stop offset="0" stop-color="#373736"/><stop offset="1" stop-color="#191918"/></linearGradient><path fill="url(#e)" d="M347.08 21.136a5.653 5.653 0 0 0-5.652 5.655V38.1a5.654 5.654 0 0 1-11.309 0V26.79a5.661 5.661 0 0 0-11.32.001V38.1a5.654 5.654 0 0 1-5.66 5.654c-3.13 0-5.66-2.53-5.66-5.654V26.79c0-3.122-2.53-5.654-5.66-5.654s-5.66 2.532-5.66 5.655V38.1c0 9.37 7.592 16.963 16.96 16.963 4.35 0 8.307-1.652 11.31-4.345 3 2.692 6.96 4.345 11.31 4.345 9.37 0 16.96-7.594 16.96-16.963V26.79a5.662 5.662 0 0 0-5.66-5.654z"/><linearGradient id="f" x1="-683.3" x2="-683.3" y1="1639.67" y2="1591.297" gradientUnits="userSpaceOnUse" gradientTransform="matrix(1 0 0 -1 1045.93 1646.28)"><stop offset="0" stop-color="#373736"/><stop offset="1" stop-color="#191918"/></linearGradient><path fill="url(#f)" d="M362.63 21.136a5.653 5.653 0 0 0-5.653 5.655v22.62c0 3.13 2.53 5.66 5.653 5.66a5.651 5.651 0 0 0 5.654-5.65V26.79a5.653 5.653 0 0 0-5.654-5.654z"/><linearGradient id="g" x1="-683.3" x2="-683.3" y1="1639.669" y2="1591.298" gradientUnits="userSpaceOnUse" gradientTransform="matrix(1 0 0 -1 1045.93 1646.28)"><stop offset="0" stop-color="#373736"/><stop offset="1" stop-color="#191918"/></linearGradient><circle cx="362.63" cy="12.654" r="5.654" fill="url(#g)"/><path fill="#00acec" d="M536.246 21.848c2.773-8.66 6.166-14.272 10.07-18.34 2.91-3.036 4.412-4 2.7-.657.756-.6 1.843-1.41 2.686-1.84 4.722-2.22 4.386-.35 1.134 1.65 8.88-3.17 8.57.87-.817 2.89 7.67.15 15.83 5.03 18.18 15.42.32 1.44-.06 1.3 1.41 1.56 3.18.57 6.17.53 9.08-.39-.32 2.15-3.16 3.55-7.59 4.47-1.65.34-1.98.25-.01.7 2.42.55 5.13.69 7.99.55-2.23 2.57-5.79 3.88-10.19 3.94-2.75 10.05-9.04 17.25-17 21.77-18.69 10.606-45.9 9.067-59.54-10.21 8.95 7.024 22.21 8.57 32.06-1.22-6.45 0-8.128-4.83-3.01-7.44-4.847-.05-7.92-1.58-9.73-4.356-.688-1.05-.69-1.132.425-1.94 1.23-.89 2.904-1.282 4.64-1.414-5.014-1.433-8.077-4.05-9.14-7.565-.35-1.163-.406-1.104.775-1.403 1.16-.293 2.646-.45 3.98-.516-3.94-2.39-6.29-5.315-6.89-8.55-.57-3.06.02-2.273 2.303-1.4 10.22 3.91 20.414 8.11 26.45 14.33z"/><linearGradient id="h" x1="-597.058" x2="-597.058" y1="1639.669" y2="1591.299" gradientUnits="userSpaceOnUse" gradientTransform="matrix(1 0 0 -1 1045.93 1646.28)"><stop offset="0" stop-color="#373736"/><stop offset="1" stop-color="#191918"/></linearGradient><path fill="url(#h)" d="M465.82 35.272c0 1.976-.83 5.637-3.78 5.637l-18.665-.01a5.656 5.656 0 0 0 5.48 4.26h12.048c2.734 0 4.948 2.21 4.948 4.94s-2.21 4.95-4.94 4.95h-12.05c-9.36 0-16.96-7.65-16.96-18.38 0-9.41 7.6-15.55 16.97-15.55s16.97 6.33 16.97 14.13zm-11.306-1.414c0-2.602-2.528-4.712-5.652-4.712s-5.655 2.11-5.655 4.712h11.307z"/></g></svg>