<?xml version="1.0" ?><!DOCTYPE svg  PUBLIC '-//W3C//DTD SVG 1.1//EN'  'http://www.w3.org/Graphics/SVG/1.1/DTD/svg11.dtd'><svg enable-background="new 0 0 100 100" height="100px" id="Layer_1" version="1.1" viewBox="0 0 100 100" width="100px" xml:space="preserve" xmlns="http://www.w3.org/2000/svg" xmlns:xlink="http://www.w3.org/1999/xlink"><g><defs><rect height="100" id="SVGID_1_" width="100"/></defs><path d="M12.502,85.781V14.218C12.502,9.125,16.131,5,20.615,5c4.48,0,8.111,4.125,8.111,9.218v40.271   l20.279-21.833c2.349-2.548,4.269-4.125,7.149-4.125c4.375,0,7.15,4.004,7.15,8.249c0,3.154-1.492,5.581-3.734,8.006L46.764,57.277   l15.264,23.41c1.389,2.183,2.029,3.881,2.029,5.942c0,4.974-3.524,8.369-7.58,8.369c-3.202,0-5.123-1.213-7.044-4.245   L35.236,68.559l-6.51,6.672v10.552c0,5.096-3.631,9.219-8.111,9.219C16.131,95,12.502,90.877,12.502,85.781 M77.754,74.891   c5.385,0,9.748-4.389,9.748-9.802s-4.363-9.803-9.748-9.803s-9.749,4.39-9.749,9.803S72.369,74.891,77.754,74.891"/></g></svg>