<?xml version="1.0" ?><svg enable-background="new 0 0 64 64" version="1.1" viewBox="0 0 64 64" xml:space="preserve" xmlns="http://www.w3.org/2000/svg" xmlns:xlink="http://www.w3.org/1999/xlink"><g id="Glyph_copy_2"><path d="M60.313,29.152C60.313,13.052,47.261,0,31.16,0S2.008,13.052,2.008,29.152c0,16.1,13.052,29.152,29.152,29.152   c3.138,0,6.154-0.509,8.986-1.427C44.345,63.385,56.105,64,60.398,64c1,0,1.594-0.033,1.594-0.033   c-8.737-4.934-10.678-11.012-11.112-13.388C56.666,45.251,60.313,37.637,60.313,29.152z M17.454,33.819   c-2.577,0-4.666-2.089-4.666-4.666c0-2.577,2.089-4.666,4.666-4.666c2.577,0,4.666,2.089,4.666,4.666   C22.12,31.73,20.031,33.819,17.454,33.819z M31.16,33.819c-2.577,0-4.666-2.089-4.666-4.666c0-2.577,2.089-4.666,4.666-4.666   c2.577,0,4.666,2.089,4.666,4.666C35.827,31.73,33.737,33.819,31.16,33.819z M44.869,33.819c-2.577,0-4.666-2.089-4.666-4.666   c0-2.577,2.089-4.666,4.666-4.666c2.577,0,4.666,2.089,4.666,4.666C49.535,31.73,47.446,33.819,44.869,33.819z"/></g></svg>