<?xml version="1.0" encoding="iso-8859-1"?><!-- Generator: Adobe Illustrator 16.0.0, SVG Export Plug-In . SVG Version: 6.00 Build 0) --><!DOCTYPE svg PUBLIC "-//W3C//DTD SVG 1.1//EN" "http://www.w3.org/Graphics/SVG/1.1/DTD/svg11.dtd"><svg version="1.1" id="Layer_1" xmlns="http://www.w3.org/2000/svg" xmlns:xlink="http://www.w3.org/1999/xlink" x="0px" y="0px" width="503.377px" height="504.14px" viewBox="4.581 3.818 503.377 504.14" style="enable-background:new 4.581 3.818 503.377 504.14;" xml:space="preserve"><g transform="translate(0.000000,950.000000) scale(0.100000,-0.100000)"><path d="M800.34,9455.806c-97.549-10.777-207.5-45.811-303.965-95.934c-226.904-119.648-395.586-352.471-440.322-609.009	c-9.707-54.434-10.244-127.729-10.244-1821.645V5164.17l12.402-54.971c77.607-350.859,325.518-598.779,676.377-676.377	l54.971-12.402h1773.135h1773.144l54.971,12.402c350.85,77.598,598.77,325.518,676.377,676.377l12.393,54.971v1765.049	c0,1693.915-0.537,1767.211-10.234,1821.645c-13.477,78.687-40.42,157.91-81.387,239.829	c-127.725,257.08-384.268,434.932-672.061,466.191C4250.144,9463.892,863.934,9463.349,800.34,9455.806z M2725.994,8559.535	c185.4-23.174,335.225-67.905,499.609-148.208c161.679-79.229,265.155-154.141,402.05-290.492	c128.271-128.809,199.414-226.362,274.863-377.803c105.098-211.27,164.922-462.417,175.156-738.896	c3.779-94.312,1.084-115.337-20.479-142.28c-40.957-52.285-130.967-43.652-161.68,15.088	c-9.707,19.404-12.402,36.104-15.635,111.562c-5.391,115.874-13.467,190.786-29.639,280.254	c-63.594,350.85-231.748,631.104-500.146,832.134c-223.661,168.148-454.872,250.072-757.753,267.855	c-102.402,5.928-120.186,9.697-143.359,27.485c-43.125,33.955-45.273,113.716-3.779,150.903	c25.332,23.179,43.115,26.411,130.967,23.716C2621.98,8569.237,2689.344,8563.847,2725.994,8559.535z M1493.963,8501.327	c18.867-6.465,47.969-21.553,64.678-32.334c102.393-67.91,387.5-432.772,480.742-614.94	c53.35-104.014,71.133-181.084,54.434-238.213c-17.256-61.44-45.811-93.779-173.545-196.719	c-51.201-41.494-99.17-84.072-106.709-95.391c-19.404-28.027-35.039-82.998-35.039-121.802	c0.547-90.005,58.75-253.306,135.283-378.882c59.277-97.549,165.449-222.578,270.547-318.516	c123.418-113.184,232.285-190.244,355.166-251.152c157.91-78.682,254.385-98.623,324.99-65.752	c17.783,8.086,36.641,18.867,42.578,23.711c5.381,4.854,46.885,55.518,92.158,111.562	c87.305,109.951,107.246,127.734,167.07,148.213c75.996,25.869,153.603,18.867,231.747-21.016	c59.287-30.723,188.633-111.025,272.168-169.229c109.941-77.07,344.922-268.936,376.729-307.207	c56.045-68.984,65.752-157.363,28.018-254.922c-39.883-102.93-195.098-295.879-303.428-378.34	c-98.086-74.375-167.607-102.93-259.229-107.246c-75.449-3.77-106.709,2.695-203.184,42.578	c-756.679,312.051-1360.839,777.695-1840.507,1417.432c-250.605,334.146-441.396,680.688-571.826,1040.166	c-75.986,209.648-79.756,300.732-17.246,407.982c26.953,45.269,141.748,157.373,225.283,219.888	c139.053,103.481,203.184,141.748,254.385,152.524C1394.256,8521.269,1455.154,8515.341,1493.963,8501.327z M2763.182,8168.798	c327.148-47.963,580.448-199.95,746.444-446.786c93.242-139.048,151.445-302.349,171.387-477.505	c7.002-64.136,7.002-181.089-0.537-200.493c-7.012-18.32-29.648-43.115-49.053-53.35c-21.016-10.781-65.742-9.707-90.537,3.232	c-41.504,21.016-53.896,54.434-53.896,144.976c0,139.585-36.113,286.719-98.623,400.977	c-71.143,130.425-174.618,238.213-300.731,313.13c-108.33,64.673-268.398,112.637-414.453,124.492	c-52.822,4.316-81.924,15.093-101.865,38.267c-30.713,35.034-33.955,82.461-8.086,121.801	C2591.258,8181.195,2634.373,8188.202,2763.182,8168.798z M2877.977,7761.895c106.172-22.637,187.559-63.057,257.08-128.271	c89.463-84.609,138.515-187.012,160.067-334.146c14.551-95.933,8.623-133.657-25.332-164.917	c-31.796-29.102-90.536-30.181-126.112-2.695c-25.869,19.404-33.955,39.883-39.883,95.391	c-7.002,73.838-19.941,125.576-42.031,173.545c-47.432,101.86-130.967,154.678-272.168,171.924	c-66.299,8.086-86.24,15.63-107.793,40.957c-39.346,46.89-24.258,122.881,30.176,150.908c20.488,10.239,29.111,11.318,74.375,8.623	C2814.383,7771.597,2855.887,7766.748,2877.977,7761.895z"/></g></svg>