<svg xmlns="http://www.w3.org/2000/svg" width="279.933" height="139.987" viewBox="60.033 80.022 279.933 139.987"><title>Artbox</title><path d="M323.85 148.534c8.902 0 16.116 7.183 16.116 16.045 0 8.86-7.214 16.043-16.116 16.043s-16.115-7.183-16.115-16.044c0-8.86 7.212-16.046 16.115-16.046z" fill="#3DB4E7"/><path d="M194.108 205.552h-29.206l.03-72.648 29.173.102.003 72.546z" fill="#82BC23"/><path d="M179.514 190.71c7.967 0 14.424 6.56 14.424 14.65s-6.458 14.65-14.424 14.65-14.427-6.56-14.427-14.65 6.46-14.65 14.427-14.65zm0-72.795c7.967 0 14.424 6.56 14.424 14.652 0 8.093-6.458 14.65-14.424 14.65s-14.427-6.56-14.427-14.65c0-8.093 6.46-14.652 14.427-14.652zM74.61 191.072c7.878 0 14.263 6.475 14.263 14.463 0 7.986-6.384 14.462-14.263 14.462-7.878 0-14.263-6.476-14.263-14.462 0-7.988 6.385-14.463 14.263-14.463zm.063-111.05c7.91 0 14.32 6.546 14.32 14.623 0 8.076-6.41 14.623-14.32 14.623-7.908 0-14.32-6.547-14.32-14.623 0-8.077 6.412-14.623 14.32-14.623z" fill="#82BC23"/><path d="M60.034 95.15l29.113.308.145 53.625 26.95-26.356 21.496 20.043-18.963 18.673 26.502 35.727-23.634 17.15-25.25-33.752-7.354 6.82-.002 18.977-29.006-1.132.002-110.084z" fill="#82BC23"/><path d="M127.05 117.923c8.046 0 14.567 6.543 14.567 14.616 0 8.07-6.52 14.617-14.566 14.617-8.042 0-14.565-6.546-14.565-14.618 0-8.073 6.523-14.617 14.566-14.617zm5.887 72.707c7.996 0 14.478 6.576 14.478 14.686 0 8.107-6.48 14.683-14.478 14.683-7.997 0-14.48-6.575-14.48-14.684 0-8.11 6.483-14.685 14.48-14.685zm96.157.442c7.878 0 14.262 6.475 14.262 14.463 0 7.986-6.384 14.462-14.262 14.462-7.88 0-14.264-6.476-14.264-14.462 0-7.988 6.385-14.463 14.264-14.463zm.062-111.05c7.908 0 14.32 6.546 14.32 14.623 0 8.076-6.41 14.623-14.32 14.623-7.908 0-14.32-6.547-14.32-14.623 0-8.077 6.412-14.623 14.32-14.623z" fill="#82BC23"/><path d="M214.516 95.15l29.113.308.143 53.625 26.952-26.356 21.494 20.043-18.962 18.673 26.502 35.727-23.635 17.15-25.25-33.752-7.353 6.82v18.977l-29.008-1.132.002-110.084z" fill="#82BC23"/><path d="M281.533 117.923c8.045 0 14.566 6.543 14.566 14.616 0 8.07-6.522 14.617-14.567 14.617-8.043 0-14.566-6.546-14.566-14.618.002-8.073 6.524-14.617 14.566-14.617zm5.887 72.707c7.996 0 14.477 6.576 14.477 14.686 0 8.107-6.48 14.683-14.477 14.683s-14.48-6.575-14.48-14.684c0-8.11 6.483-14.685 14.48-14.685z" fill="#82BC23"/></svg>