<svg xmlns="http://www.w3.org/2000/svg" width="150" height="32" viewBox="0 0 150 32"><path fill="#706d6e" d="M149.89 14.476V11.84h-3.273V7.742l-.11.034-3.135.959v3.105h-4.853v-1.73c0-.806.18-1.422.535-1.833.353-.406.857-.613 1.5-.613.463 0 .941.109 1.423.324l.121.054V5.266l-.057-.021c-.45-.162-1.06-.243-1.818-.243-.955 0-1.822.208-2.579.62s-1.353 1.001-1.77 1.75c-.416.748-.627 1.611-.627 2.567v1.902h-2.279v2.636h2.279v11.105h3.272V14.477h4.853v7.057c0 2.907 1.371 4.379 4.074 4.379.444 0 .912-.052 1.389-.154.486-.105.817-.209 1.012-.321l.043-.026v-2.66l-.133.088a2.31 2.31 0 0 1-.658.287c-.26.073-.478.11-.646.11-.633 0-1.102-.171-1.393-.508-.294-.34-.443-.934-.443-1.766v-6.488h3.273zm-24.231 8.761c-1.188 0-2.124-.394-2.784-1.17-.664-.78-1-1.891-1-3.303 0-1.457.336-2.597 1-3.391.66-.788 1.588-1.188 2.757-1.188 1.135 0 2.038.382 2.685 1.136.65.758.98 1.889.98 3.363 0 1.492-.31 2.638-.922 3.405-.608.761-1.521 1.148-2.716 1.148zm.146-11.728c-2.266 0-4.066.664-5.349 1.973-1.282 1.31-1.932 3.122-1.932 5.387 0 2.151.635 3.882 1.887 5.143s2.956 1.9 5.063 1.9c2.197 0 3.96-.673 5.243-2.001 1.282-1.326 1.932-3.121 1.932-5.333 0-2.185-.61-3.929-1.813-5.181s-2.897-1.888-5.031-1.888zm-12.557 0c-1.541 0-2.816.394-3.79 1.172-.98.782-1.477 1.808-1.477 3.049 0 .645.107 1.218.318 1.704.212.488.541.917.978 1.277.434.357 1.102.732 1.989 1.113.745.307 1.301.566 1.654.77.345.2.59.402.728.598.134.192.203.455.203.779 0 .923-.691 1.372-2.114 1.372-.528 0-1.13-.11-1.789-.327s-1.276-.529-1.832-.929l-.136-.097v3.15l.05.023c.463.214 1.047.394 1.735.536a9.306 9.306 0 0 0 1.853.214c1.673 0 3.019-.396 4.002-1.178.989-.787 1.49-1.837 1.49-3.121 0-.926-.27-1.721-.802-2.361-.528-.635-1.445-1.219-2.724-1.734-1.019-.409-1.672-.748-1.941-1.009-.26-.252-.391-.608-.391-1.058 0-.399.163-.72.497-.979.337-.261.805-.393 1.393-.393.545 0 1.103.086 1.658.255s1.041.395 1.448.671l.134.091v-2.988l-.051-.022c-.375-.161-.869-.298-1.47-.41a8.969 8.969 0 0 0-1.612-.167zM99.45 23.237c-1.188 0-2.124-.394-2.784-1.17-.664-.78-1-1.891-1-3.303 0-1.457.336-2.597 1-3.391.66-.788 1.587-1.188 2.757-1.188 1.134 0 2.037.382 2.684 1.136.65.758.98 1.889.98 3.363 0 1.492-.31 2.638-.922 3.405-.608.761-1.521 1.148-2.716 1.148zm.146-11.728c-2.266 0-4.066.664-5.349 1.973s-1.933 3.122-1.933 5.387c0 2.152.635 3.882 1.887 5.143s2.955 1.9 5.063 1.9c2.196 0 3.96-.673 5.243-2.001 1.282-1.326 1.932-3.121 1.932-5.333 0-2.185-.61-3.929-1.813-5.181s-2.897-1.888-5.031-1.888zM87.347 14.22v-2.38h-3.232v13.741h3.232v-7.029c0-1.195.271-2.177.806-2.919.528-.733 1.231-1.104 2.09-1.104.291 0 .618.048.972.143.35.094.604.197.754.304l.136.099v-3.258l-.052-.022c-.301-.128-.727-.192-1.266-.192-.812 0-1.539.261-2.162.775-.547.452-.941 1.071-1.243 1.843h-.034zm-9.02-2.711c-1.483 0-2.806.318-3.931.945a6.371 6.371 0 0 0-2.593 2.666c-.59 1.138-.89 2.467-.89 3.949 0 1.298.291 2.49.865 3.54a6.077 6.077 0 0 0 2.419 2.445c1.029.57 2.218.859 3.534.859 1.536 0 2.848-.307 3.899-.913l.043-.024v-2.961l-.136.099a6.096 6.096 0 0 1-1.581.824c-.571.199-1.092.3-1.549.3-1.268 0-2.287-.397-3.025-1.179-.74-.783-1.116-1.884-1.116-3.268 0-1.393.391-2.521 1.163-3.354.769-.83 1.79-1.251 3.032-1.251 1.062 0 2.098.36 3.077 1.07l.136.099v-3.121l-.044-.025c-.369-.206-.871-.377-1.495-.506a8.92 8.92 0 0 0-1.807-.194zm-9.64.331h-3.232v13.741h3.232v-13.74zm-1.583-5.854c-.532 0-.996.181-1.377.54-.383.36-.577.813-.577 1.348 0 .526.192.971.571 1.322.377.349.842.526 1.383.526s1.008-.177 1.389-.526c.384-.351.578-.796.578-1.322 0-.516-.189-.965-.563-1.333s-.846-.554-1.405-.554zm-8.065 4.841v14.754h3.299V6.407h-4.566l-5.803 14.242-5.632-14.242h-4.751V25.58h3.1V10.824h.106l5.947 14.756h2.339l5.854-14.755h.106z"/><path fill="#f1511b" d="M15.206 15.206H0V0h15.206v15.206z"/><path fill="#80cc28" d="M31.994 15.206H16.789V0h15.205v15.206z"/><path fill="#00adef" d="M15.205 32H0V16.795h15.205V32z"/><path fill="#fbbc09" d="M31.994 32H16.789V16.795h15.205V32z"/></svg>