<svg xmlns="http://www.w3.org/2000/svg" width="107" height="32" viewBox="0 0 107 32"><path fill="#443642" d="M37.955 12.554c0-3.178 2.317-5.396 6.527-5.396 2.569 0 4.671.82 5.81 1.624.163.115.454.393.279.911a22.149 22.149 0 0 1-.927 1.941c-.171.317-.608.276-.832.162-.811-.411-2.142-1.106-3.364-1.235a7.133 7.133 0 0 0-.932-.041c-1.076.024-1.976.398-2.293 1.219a1.43 1.43 0 0 0-.102.488c-.029 1.082 1.477 1.474 3.301 1.787 3.392.581 5.958 1.576 5.958 5.067 0 2.965-2.357 5.645-6.973 5.562-3.044-.062-5.203-1.09-6.36-2.088-.039-.034-.48-.482-.244-1.022.27-.694.726-1.49 1.084-1.913.199-.272.724-.315.997-.146.954.593 2.523 1.543 4.333 1.606.143.005.284.006.423.002 1.628-.039 2.612-.656 2.592-1.696-.018-.916-1.308-1.451-3.363-1.838-3.277-.618-5.914-1.698-5.914-4.995zm29.774 4.524c-2.311.03-4.43.662-4.491 2.468 0 1.433 1.162 2.137 2.794 2.045 1.565-.151 2.759-.83 3.285-1.73.195-.334.224-1.583.212-2.117-.003-.114-.228-.329-.326-.37-.491-.207-.855-.271-1.474-.296zM60.039 9.8c1.081-.967 3.224-2.472 6.639-2.393 4.507.094 6.888 2.207 7.109 7.261.091 2.084-.06 7.898-.096 9.347-.005.208-.076.352-.356.357-.742.03-2.457.018-3.244.008-.398-.019-.444-.217-.449-.423l-.024-.862c-.004-.174-.167-.169-.209-.124-1.057 1.129-2.788 1.674-4.63 1.674-2.798 0-5.588-1.646-5.58-4.906.009-3.339 2.376-4.986 4.977-5.374 1.665-.248 3.542-.028 4.964.537.091.036.277-.016.278-.145.006-.425-.015-1.236-.097-1.62-.209-.979-1.025-1.767-2.741-1.979a5.265 5.265 0 0 0-1.065-.03c-1.364.107-3.005 1.171-3.685 1.569-.16.094-.41.025-.491-.079-.397-.512-1.394-2.011-1.472-2.251s.032-.44.172-.566l.001.001zm15.234 6.215c-.027-4.656 3.218-8.585 8.486-8.619 3.287-.021 5.675 1.469 6.096 2.172.086.165.042.303-.018.469-.278.588-.981 1.723-1.482 2.366-.213.274-.445.039-.714-.14-.747-.498-2.166-1.106-3.563-1.106-2.534 0-4.421 1.738-4.4 4.934.02 3.067 1.827 4.753 4.408 4.814 1.349.034 2.657-.742 3.36-1.377.221-.193.449-.096.702.101.495.506 1.206 1.288 1.6 1.826.258.299.065.591-.028.709-1.069 1.352-3.133 2.491-5.865 2.506-5.72.04-8.557-3.982-8.583-8.655zm27.303 8.445c.268-.02 3.134-.416 4.013-.617.218-.05.296-.233.174-.415-.491-.736-1.782-2.827-3.134-4.699-1.244-1.721-2.554-3.235-2.978-3.818-.103-.142-.098-.281.015-.391.806-.789 4.18-4.097 5.448-5.463.491-.531.196-.76-.221-.884-.806-.24-2.109-.54-2.85-.696-.312-.066-.689-.043-.962.238-1.268 1.183-5.138 5.067-6.294 6.228-.208.21-.329.163-.33-.136-.01-2.239-.054-11.823-.134-13.4-.006-.208-.256-.367-.398-.374-.727-.038-2.562-.049-3.285-.006-.203.023-.396.229-.414.404-.167 2.521.071 21.026.17 23.615a.349.349 0 0 0 .324.343c.722.042 2.506.039 3.34.024.41 0 .46-.288.46-.288l.062-4.966s.042-.221.111-.294a61.903 61.903 0 0 1 1.453-1.524c.083-.081.214-.075.299.039.412.555 1.586 2.361 2.674 3.973 1 1.481 1.933 2.796 1.999 2.889.151.214.326.223.459.219zm-48.726-.017c.252.009 2.164.006 3.011.005a.42.42 0 0 0 .443-.401c.18-3.63.103-20.91-.011-23.639-.009-.236-.11-.324-.271-.346-.727-.097-2.793-.075-3.455.099a.266.266 0 0 0-.21.259c-.162 7.033-.053 23.249-.018 23.556s.195.456.513.467z"/><path fill="#70cadb" d="M2.688 17.227c-1.178.009-2.176-.693-2.544-1.789-.014-.042-.026-.084-.038-.125a2.736 2.736 0 0 1 1.77-3.341l22.353-7.489c.272-.078.545-.117.816-.119 1.209-.009 2.235.708 2.612 1.827l.033.108c.418 1.462-.621 2.766-1.866 3.184L3.595 17.072a2.906 2.906 0 0 1-.908.155z"/><path fill="#e01765" d="M6.413 28.22c-1.187.009-2.189-.684-2.552-1.764a2.754 2.754 0 0 1 1.729-3.498l22.354-7.557a2.87 2.87 0 0 1 .887-.149c1.191-.009 2.237.718 2.605 1.811l.034.114a2.825 2.825 0 0 1-.341 2.273c-.32.498-1.329.936-1.329.936L7.362 28.058c-.313.104-.631.16-.95.162z"/><path fill="#e8a723" d="M25.021 28.268a2.745 2.745 0 0 1-2.628-1.87l-7.46-22.16-.037-.124A2.744 2.744 0 0 1 16.662.757 2.736 2.736 0 0 1 18.76.9a2.74 2.74 0 0 1 1.383 1.585l7.459 22.157.021.071c.419 1.467-.356 2.942-1.75 3.412-.276.092-.563.14-.853.143z"/><path fill="#3eb890" d="M13.932 32a2.746 2.746 0 0 1-2.629-1.872L3.845 7.969l-.039-.123a2.744 2.744 0 0 1 2.62-3.5 2.745 2.745 0 0 1 2.628 1.87l7.458 22.16c.014.039.026.081.038.122A2.744 2.744 0 0 1 13.931 32h.001z"/><path fill="#cc2027" d="M21.343 23.277l5.202-1.779-1.7-5.05-5.208 1.76 1.706 5.068z"/><path fill="#361238" d="M10.271 27.063l5.201-1.778-1.713-5.089-5.206 1.761 1.718 5.106z"/><path fill="#65863a" d="M17.64 12.278l5.202-1.776-1.681-4.991-5.212 1.746 1.69 5.021z"/><path fill="#1a937d" d="M6.567 16.058l5.202-1.776-1.701-5.055-5.212 1.746 1.711 5.085z"/></svg>