<svg xmlns="http://www.w3.org/2000/svg" width="32" height="32" viewBox="0 0 32 32"><path fill="#2c4a7c" d="M19.378 21.624h2.262v-8.986l-2.262-2.262v11.248zM12.134 12.118l-.367-.367v-1.375h-.52v.856l-.367-.336v-.52h-.489v11.248h2.231V10.376h-.489v1.742zM13.051 10.376h.489v2.262h-.489v-2.262zM13.967 10.376h.52v2.262h-.52v-2.262zM16.627 12.118l-.367-.367v-1.375h-.52v.856l-.336-.336v-.52h-.52v11.248h2.231V10.376h-.489v1.742zM17.544 10.376h.519v2.262h-.519v-2.262zM18.46 10.376h.519v2.262h-.519v-2.262zM6.846 14.319h2.262v-1.681l-2.262-2.262v3.943zM5.012 10.376h.52v2.262h-.52v-2.262zM5.929 10.376h.52v2.262h-.52v-2.262z"/><path fill="#2c4a7c" d="M6.846 21.624l2.262-2.262V17.13l-2.262-2.262H4.615v-4.493l-2.262 2.262v2.231l2.262 2.262h2.231v2.232H4.615v-1.681H2.353v1.681l2.262 2.262h2.231zM27.416 14.319h2.231v-1.681l-2.231-2.262v3.943zM25.551 10.376h.52v2.262h-.52v-2.262zM26.468 10.376h.519v2.262h-.519v-2.262z"/><path fill="#2c4a7c" d="M27.416 21.624l2.231-2.262V17.13l-2.231-2.262h-2.262v-4.493l-2.232 2.262v2.231l2.232 2.262h2.262v2.232h-2.262v-1.681h-2.232v1.681l2.232 2.262h2.262z"/></svg>