<svg xmlns="http://www.w3.org/2000/svg" width="32" height="32" viewBox="0 0 32 32"><path fill="#cf272d" d="M15.982 27.788c-6.501 0-11.77-5.27-11.77-11.77s5.27-11.77 11.77-11.77c6.501 0 11.77 5.27 11.77 11.77s-5.27 11.77-11.77 11.77zm0-27.753C7.155.035 0 7.191 0 16.017s7.156 15.982 15.982 15.982c8.827 0 15.982-7.156 15.982-15.982S24.808.035 15.982.035z"/><path fill="#cf272d" d="M16.639 12.037a3.323 3.323 0 1 1 6.647 0 3.323 3.323 0 0 1-6.647 0zm0 7.961a3.323 3.323 0 1 1 6.647 0 3.323 3.323 0 0 1-6.647 0zm-7.96 0a3.323 3.323 0 1 1 6.647 0 3.323 3.323 0 0 1-6.647 0zm0-7.961a3.323 3.323 0 1 1 6.647 0 3.323 3.323 0 0 1-6.647 0z"/></svg>