<svg xmlns="http://www.w3.org/2000/svg" width="171" height="32" viewBox="0 0 171 32"><path d="M10.52 29.328C4.709 29.328 0 24.618 0 18.808L.034 6.74a3.016 3.016 0 0 1 6.03.003v4.517h7.526c1.667 0 3.015 1.348 3.015 3.015s-1.348 3.015-3.009 3.015H6.064v1.518a4.508 4.508 0 0 0 4.506 4.506h4.533a3.016 3.016 0 0 1 .006 6.03h-4.573zM70.002 29.328c-5.81 0-10.485-4.71-10.485-10.52V6.739a3.012 3.012 0 1 1 6.023 0v4.517h4.517a3.01 3.01 0 1 1-.001 6.021h-4.512v1.518a4.508 4.508 0 0 0 4.506 4.506h1.518a3.01 3.01 0 0 1 .006 6.018h-1.561zM85.813 29.328c-5.81 0-10.486-4.71-10.486-10.52V6.739a3.012 3.012 0 1 1 6.024 0v4.517h4.517c1.664 0 3.012 1.349 3.012 3.012s-1.348 3.009-3.009 3.009h-4.517v1.518a4.508 4.508 0 0 0 4.506 4.506h1.518a3.01 3.01 0 0 1 0 6.018h-1.561zM111.487 20.293c0-4.991 3.998-9.036 8.988-9.036h4.517c1.662 0 3.011 1.349 3.011 3.012s-1.349 3.015-3.011 3.015h-4.517a3.012 3.012 0 0 0-3.013 3.015l.053 6.024c0 1.662-1.348 3.015-3.009 3.015s-3.009-1.348-3.009-3.009v-6.025zM45.963 11.258a3.012 3.012 0 0 0-3.011 3.012v6.024a3.013 3.013 0 0 1-6.024 0V14.27a3.016 3.016 0 0 0-6.03 0v6.024c0 1.663-1.348 3.012-3.015 3.012s-3.015-1.348-3.015-3.012V14.27c0-1.663-1.348-3.012-3.015-3.012s-3.015 1.349-3.015 3.012v6.024a9.033 9.033 0 0 0 9.034 9.035c2.317 0 4.425-.88 6.024-2.314a8.992 8.992 0 0 0 6.024 2.314 9.033 9.033 0 0 0 9.034-9.035V14.27a3.016 3.016 0 0 0-3.015-3.012zM54.246 11.258a3.011 3.011 0 0 0-3.011 3.012v12.049a3.012 3.012 0 1 0 6.023.006V14.271a3.012 3.012 0 0 0-3.012-3.012zM57.258 6.74a3.012 3.012 0 1 1-6.024 0 3.012 3.012 0 0 1 6.024 0z"/><path fill="#00acec" d="M146.723 11.637c1.477-4.613 3.284-7.602 5.364-9.769 1.55-1.617 2.35-2.131 1.438-.35.403-.32.982-.751 1.431-.98 2.515-1.182 2.336-.186.604.879 4.73-1.688 4.565.463-.435 1.539 4.085.08 8.432 2.679 9.684 8.213.17.767-.032.692.751.831 1.694.304 3.286.282 4.836-.208-.17 1.145-1.683 1.891-4.043 2.381-.879.181-1.055.133-.005.373 1.289.293 2.732.368 4.256.293-1.188 1.369-3.084 2.067-5.428 2.099-1.465 5.353-4.815 9.188-9.055 11.596-9.955 5.649-24.449 4.83-31.714-5.438 4.767 3.741 11.83 4.565 17.077-.65-3.436 0-4.329-2.573-1.603-3.963-2.582-.027-4.219-.842-5.183-2.32-.366-.559-.368-.603.226-1.033.655-.474 1.547-.683 2.471-.753-2.671-.763-4.302-2.157-4.868-4.029-.186-.619-.216-.588.413-.747.618-.156 1.409-.24 2.12-.275-2.099-1.273-3.35-2.831-3.67-4.554-.304-1.63.011-1.211 1.227-.746 5.444 2.083 10.874 4.32 14.089 7.633z"/><path d="M109.21 18.787c0 1.053-.442 3.003-2.013 3.003l-9.942-.005a3.013 3.013 0 0 0 2.919 2.269h6.417a2.635 2.635 0 0 1 .005 5.268h-6.418c-4.986 0-9.034-4.075-9.034-9.79 0-5.012 4.048-8.283 9.039-8.283s9.039 3.372 9.039 7.526zm-6.022-.753c0-1.386-1.347-2.51-3.011-2.51s-3.012 1.124-3.012 2.51h6.023z"/></svg>