<svg xmlns="http://www.w3.org/2000/svg" width="113" height="32" viewBox="0 0 113 32"><path fill="#2e3233" d="M74.315 10.142c2.46-.593 5.451-.041 7.057 2.058.683.823.974 1.873 1.228 2.892-1.08.017-2.165.017-3.245.017-.47-2.326-3.664-3.256-5.359-1.664-1.194 1.3-1.41 3.232-1.163 4.916.264 1.293.786 2.796 2.12 3.331 1.901.71 4.148-.556 4.402-2.604 1.101 0 2.206-.004 3.31.021-.23 1.969-1.18 4.02-3.108 4.827-2.992 1.3-7.277.912-9.01-2.185.275-1.263.584-2.577.299-3.867-.161-.953-.659-1.794-.967-2.7-.006-2.463 2.107-4.556 4.436-5.043z"/><path fill="#9de60b" d="M41.371 10.501c1.183-.01 2.367-.01 3.551-.014.703 3.104 1.094 6.281 1.952 9.352.861-2.546 1.259-5.218 1.99-7.801.216-.782.83-1.609 1.729-1.55.974-.117 1.637.786 1.836 1.636.7 2.539 1.159 5.143 1.938 7.665.895-3.043 1.386-6.182 2.042-9.284 1.155-.014 2.309-.014 3.465-.003-.968 3.894-2.062 7.753-3.054 11.64-.244.968-.669 2.072-1.705 2.429-1.173.268-2.237-.666-2.522-1.753-.73-2.333-1.259-4.728-1.979-7.067a280.458 280.458 0 0 1-1.812 6.954c-.24 1.033-1.146 2.092-2.309 1.887-1.122-.127-1.675-1.242-1.921-2.216-1.061-3.959-2.142-7.915-3.202-11.874z"/><path fill="#2e3233" d="M83.382 10.499c1.061-.004 2.124-.004 3.184-.007-.007 1.167-.017 2.333.075 3.493 1.705.12 3.575-.364 5.146.501 1.355.727 2.137 2.264 2.127 3.78.021 2.11-.007 4.22.003 6.333-1.033.007-2.062.01-3.091.013-.021-2.027.024-4.055-.01-6.082.041-.686-.447-1.403-1.153-1.482-1.029-.13-2.069-.062-3.101-.041.007 2.532.004 5.067.004 7.603-1.06-.003-2.12-.003-3.18-.003-.004-4.703.003-9.404-.004-14.107zm24.393-.004h3.015c-.003 1.061-.003 2.117-.007 3.177.806 0 1.612 0 2.422.004-.004.782-.004 1.568-.004 2.35h-2.447c.062 1.791-.133 3.602.104 5.386.542.669 1.499.573 2.264.789-.01.799-.013 1.599-.013 2.402-1.733.038-4.1.264-4.988-1.619-.765-2.22-.192-4.648-.364-6.95-.775-.007-1.551-.011-2.326-.021 0-.776-.004-1.551-.004-2.322.782-.01 1.565-.017 2.35-.021-.003-1.057-.003-2.113-.003-3.174z"/><path fill="#9de60b" d="M69.791 19.878c.055-2.028-.395-4.316-2.189-5.53-2.347-1.492-6.103-1.29-7.684 1.231-1.321 2.223-1.393 5.373.398 7.373 1.715 1.938 4.755 2.041 7.002 1.071 1.239-.504 1.922-1.709 2.388-2.889a53.26 53.26 0 0 0-2.964-.014c-.875 1.039-2.419 1.458-3.643.806-.779-.377-.936-1.29-1.18-2.024 2.624-.041 5.249-.004 7.874-.024zm-7.953-2.117c.354-1.081 1.246-2.024 2.484-1.829 1.221-.199 2.051.786 2.394 1.832a82.674 82.674 0 0 1-4.879-.003z"/><path fill="#2e3233" d="M104.91 17.205c-.062-1.877-1.719-3.359-3.527-3.551-1.791-.185-3.819-.185-5.297 1.002-.785.569-1.036 1.547-1.239 2.443.923.024 1.846.028 2.772.021.525-1.571 2.58-1.771 3.815-.961.467.391.426 1.05.559 1.595-1.935.076-4.062-.298-5.781.817-1.636.961-1.935 3.318-.984 4.855.665.998 1.966 1.184 3.074 1.18 2.209.01 4.419-.004 6.628 0-.021-2.471.041-4.938-.021-7.401zm-7.101 4.518c-.144-.542.164-1.036.343-1.52 1.228-.278 2.49-.316 3.75-.288.007.861.007 1.719.004 2.58-1.366-.086-3.04.346-4.096-.772z"/><path fill="#9de60b" d="M21.882 1.997C17.874-.26 12.879-.6 8.566.958c-2.833 1.02-5.399 2.917-6.984 5.5C.145 8.786-.394 11.691.301 14.356c.695 2.958 2.745 5.436 5.241 7.093a176.24 176.24 0 0 0-1.369 4.105c1.578-.82 3.138-1.675 4.71-2.509 1.896.607 3.889.898 5.879.834-.519-1.521-.642-3.159-.406-4.745.377-2.201 1.568-4.216 3.214-5.711 2.771-2.595 6.701-3.692 10.439-3.427-.699-3.427-3.107-6.326-6.129-7.998zM11.139 8.214c-.278 1.343-2.079 1.99-3.13 1.091-1.218-.859-.877-2.993.555-3.421 1.402-.541 2.997.883 2.575 2.33zm9.734-.39c.012 1.546-2.046 2.509-3.204 1.459-1.201-.859-.861-2.952.549-3.386 1.261-.496 2.753.568 2.655 1.927z"/><path fill="#2e3233" d="M37.827 17.202c-.978-2.216-2.825-3.971-4.967-5.057-3.782-1.919-8.488-1.904-12.258.045-2.622 1.347-4.809 3.757-5.432 6.691-.512 2.158-.051 4.483 1.093 6.367 1.705 2.827 4.784 4.631 7.988 5.211 2.32.472 4.719.195 6.971-.461 1.349.527 2.558 1.376 3.868 2.003a78.305 78.305 0 0 0-1.082-3.374c1.465-1.047 2.802-2.347 3.606-3.983 1.195-2.278 1.267-5.098.213-7.441zm-13.164.847c-.332 1.047-1.859 1.363-2.593.563-.812-.736-.496-2.279.568-2.607 1.183-.498 2.544.863 2.026 2.044zm7.706.145c-.404.943-1.816 1.16-2.513.431-.338-.304-.42-.765-.555-1.172.181-.734.67-1.499 1.504-1.531 1.154-.158 2.167 1.242 1.564 2.273z"/></svg>