<svg xmlns="http://www.w3.org/2000/svg" width="108" height="32" viewBox="0 0 108 32"><path fill="#272525" d="M105.91 19.109c-.062.308-.169.57-.316.802s-.339.416-.585.562c-.239.139-.539.216-.894.216-.347 0-.647-.069-.886-.216a1.794 1.794 0 0 1-.593-.562c-.147-.231-.254-.493-.324-.802s-.1-.616-.1-.932c0-.324.031-.647.093-.947.062-.308.169-.578.316-.809.146-.239.339-.424.585-.578.239-.147.54-.224.894-.224.347 0 .64.077.878.224s.439.347.593.585.262.516.331.817c.069.308.1.616.1.932s-.031.624-.093.932zm2.05-2.488a4.12 4.12 0 0 0-.655-1.356c-.301-.385-.67-.701-1.117-.932s-.986-.354-1.61-.354c-.493 0-.94.1-1.348.293s-.748.508-1.01.932h-.031v-1.009h-2.065v10.687h2.173v-3.753h.031a2.61 2.61 0 0 0 1.017.879c.416.2.863.301 1.356.301.578 0 1.086-.115 1.526-.339.431-.223.794-.524 1.086-.902s.508-.809.647-1.302a5.319 5.319 0 0 0 .216-1.533c0-.562-.069-1.102-.216-1.618v.008zm-10.718 2.488c-.062.308-.169.57-.316.802s-.339.416-.586.562c-.239.139-.539.216-.894.216-.347 0-.64-.069-.886-.216s-.439-.331-.593-.562c-.146-.231-.254-.493-.323-.802s-.1-.616-.1-.932c0-.324.031-.647.092-.947.062-.308.169-.578.316-.809.147-.239.339-.424.586-.578.239-.147.539-.224.894-.224.347 0 .64.077.879.224s.439.347.593.585c.154.239.262.516.332.817.069.308.1.616.1.932s-.031.624-.092.932zm1.395-3.844c-.293-.385-.67-.701-1.117-.932s-.986-.354-1.611-.354c-.493 0-.94.1-1.348.293s-.747.508-1.009.932h-.031v-1.009h-2.065v10.687h2.173v-3.753h.031a2.61 2.61 0 0 0 1.017.879c.416.2.863.301 1.356.301.586 0 1.086-.115 1.526-.339.431-.223.793-.524 1.086-.902s.509-.809.655-1.302a5.61 5.61 0 0 0 .216-1.533c0-.562-.07-1.102-.216-1.618s-.362-.963-.663-1.356v.008zm-14.302 2.619l1.425-4.015h.031l1.379 4.015h-2.836zm.232-6.711l-4.138 10.934h2.419l.856-2.435h4.091l.824 2.435h2.496l-4.091-10.934h-2.458zm-4.315 7.466a2.036 2.036 0 0 0-.57-.632 3.116 3.116 0 0 0-.802-.408c-.301-.1-.609-.185-.925-.262-.308-.07-.609-.139-.902-.201s-.563-.131-.786-.208a1.569 1.569 0 0 1-.555-.301.583.583 0 0 1-.216-.478c0-.162.038-.293.123-.393s.185-.169.301-.223c.116-.054.247-.085.393-.1s.277-.023.401-.023c.385 0 .724.077 1.01.223s.447.431.47.847h2.065c-.039-.493-.169-.894-.377-1.218s-.47-.578-.786-.77-.678-.331-1.079-.416c-.401-.085-.817-.123-1.248-.123s-.847.039-1.256.115a3.352 3.352 0 0 0-1.102.401 2.166 2.166 0 0 0-.786.77c-.201.324-.301.748-.301 1.256 0 .347.069.64.216.878.139.239.331.439.562.601.239.154.501.285.802.385s.609.185.925.254c.778.162 1.379.324 1.818.485.431.162.647.408.647.732 0 .193-.046.354-.139.485s-.208.231-.347.308-.293.131-.462.169a2.145 2.145 0 0 1-.485.054c-.216 0-.424-.023-.617-.077-.2-.054-.377-.131-.531-.239s-.277-.247-.377-.416a1.16 1.16 0 0 1-.147-.601h-2.065c.023.531.139.971.362 1.325.216.355.501.632.84.848s.732.37 1.171.462a6.47 6.47 0 0 0 1.348.139c.447 0 .894-.046 1.325-.131s.817-.239 1.156-.454.609-.501.817-.848c.208-.354.316-.786.316-1.31 0-.37-.069-.678-.216-.925l.007.016zm-8.993-6.819h-2.173v2.373h-1.318v1.456h1.318v4.67c0 .401.069.717.2.963s.316.431.547.57c.231.131.493.223.794.27s.624.069.956.069c.216 0 .431-.008.663-.015.223-.008.431-.031.609-.062v-1.688c-.1.023-.208.038-.323.046s-.231.015-.354.015c-.37 0-.609-.062-.732-.185s-.185-.37-.185-.732v-3.922h1.595v-1.456h-1.595v-2.373zm-6.233 7.228c0 .123-.015.285-.038.493a1.5 1.5 0 0 1-.208.601c-.115.201-.285.37-.524.516-.231.146-.57.216-.994.216a2.92 2.92 0 0 1-.509-.046c-.162-.031-.308-.085-.431-.162s-.216-.177-.293-.316a1.043 1.043 0 0 1-.108-.493c0-.208.039-.37.108-.508.069-.131.169-.239.285-.331.115-.085.254-.154.416-.208s.316-.093.485-.124c.169-.031.347-.054.524-.077s.339-.046.501-.077.308-.069.447-.115.254-.108.347-.193v.809l-.008.015zm2.172 1.302v-4.122c0-.478-.108-.863-.323-1.156s-.493-.516-.825-.678a3.905 3.905 0 0 0-1.117-.331 9.198 9.198 0 0 0-1.21-.085c-.44 0-.879.046-1.31.131s-.824.231-1.171.439a2.678 2.678 0 0 0-.855.809c-.223.339-.354.763-.385 1.271h2.173c.038-.431.185-.732.431-.917s.578-.277 1.01-.277c.193 0 .377.015.547.039s.316.077.447.154.231.185.308.324.115.323.115.562c.008.223-.054.393-.201.516-.146.115-.339.208-.585.27s-.524.108-.84.139-.64.069-.963.123c-.324.054-.647.123-.971.208s-.609.216-.855.393a2.055 2.055 0 0 0-.616.693c-.162.293-.239.663-.239 1.11 0 .408.069.763.208 1.056.139.301.331.539.57.732.247.192.531.339.855.431s.678.139 1.056.139c.493 0 .971-.069 1.441-.216s.878-.393 1.225-.747c.008.131.031.262.054.393.023.123.062.254.1.378h2.204c-.1-.162-.177-.409-.216-.732s-.062-.67-.062-1.025v-.024zm-8.953-5.471a2.138 2.138 0 0 0-.878-.655c-.37-.162-.847-.239-1.433-.239-.408 0-.824.108-1.256.316s-.778.547-1.056 1.002h-.046v-4.122h-2.173v10.934h2.173v-4.153c0-.809.131-1.387.401-1.741.262-.354.694-.524 1.287-.524.516 0 .886.162 1.086.485s.308.809.308 1.464v4.469h2.173v-4.87c0-.493-.046-.94-.131-1.341s-.239-.747-.455-1.025zm-11.489 3.838h-.031l-1.865-7.536h-2.25l-1.896 7.443h-.031l-1.734-7.443h-2.404l2.897 10.934h2.435l1.818-7.444h.031l1.849 7.444h2.389l1.31-4.854 1.634-6.079H48.55l-1.795 7.536z"/><path fill="#fefefe" d="M16.166 28.695a13.09 13.09 0 0 1-7.212-2.165l-5.039 1.61 1.634-4.87a13.007 13.007 0 0 1-2.496-7.682c0-7.228 5.879-13.107 13.107-13.107S29.267 8.36 29.267 15.588c0 7.227-5.879 13.107-13.107 13.107h.008zm0-28.695C7.559 0 .578 6.981.578 15.588c0 2.943.817 5.702 2.234 8.052L0 32l8.63-2.766a15.545 15.545 0 0 0 7.536 1.942c8.607 0 15.588-6.981 15.588-15.588S24.773 0 16.166 0z"/><path d="M16.166 2.481c-7.228 0-13.107 5.879-13.107 13.107 0 2.866.925 5.525 2.496 7.682l-1.634 4.87 5.039-1.61a13.006 13.006 0 0 0 7.212 2.165c7.228 0 13.107-5.879 13.107-13.107S23.4 2.481 16.172 2.481h-.008z"/><path fill="#fefefe" d="M12.506 9.139c-.254-.609-.447-.632-.832-.647a7.086 7.086 0 0 0-.439-.015c-.501 0-1.025.146-1.341.47-.385.393-1.341 1.31-1.341 3.19s1.372 3.699 1.556 3.953c.193.254 2.674 4.168 6.526 5.764 3.013 1.248 3.907 1.133 4.592.986 1.002-.216 2.258-.956 2.574-1.849s.316-1.657.223-1.819c-.092-.162-.347-.254-.732-.447s-2.258-1.117-2.612-1.241c-.347-.131-.678-.085-.94.285-.37.516-.732 1.04-1.025 1.356-.231.247-.609.277-.925.146-.424-.177-1.61-.593-3.074-1.896-1.133-1.009-1.903-2.265-2.127-2.643-.224-.385-.023-.609.154-.817.193-.239.377-.408.57-.632s.301-.339.424-.601c.131-.254.039-.516-.054-.709S12.82 9.9 12.504 9.138z"/></svg>