<svg xmlns="http://www.w3.org/2000/svg" width="32" height="32" viewBox="0 0 32 32"><path fill="#0084ff" d="M0 0v32h22.188l9.813-9.875V0z"/><path fill="#fff" d="M16.063 5.813C10.506 5.813 6 10.01 6 15.188c0 2.95 1.463 5.582 3.75 7.3v3.575l3.426-1.892c.914.255 1.883.392 2.886.392 5.557 0 10.063-4.197 10.063-9.375S21.62 5.813 16.062 5.813zm1 12.625l-2.563-2.75-5 2.75 5.5-5.875 2.625 2.75 4.938-2.75-5.5 5.875z"/><path fill="#00b4ff" d="M22.188 22.125v9.876l9.813-9.876z"/><path opacity=".102" d="M12.375 32h9.813v-9.876z"/></svg>