<svg xmlns="http://www.w3.org/2000/svg" width="85" height="32" viewBox="0 0 85 32"><path fill="#26559a" d="M.154.173h84.773v31.828H.154z"/><path fill="#fff" d="M44.778 15.959c-.569 0-.978.186-1.394.376v4.292c.399.039.625.039 1.004.039 1.365 0 1.552-.625 1.552-1.496v-2.05c0-.643-.214-1.16-1.162-1.16zm-9.063-.235c-.947 0-1.162.519-1.162 1.162v.361h2.325v-.361c0-.643-.216-1.162-1.162-1.162zm-17.557 4.468c0 .508.24.772.77.772.569 0 .905-.185 1.321-.376v-1.017h-1.244c-.589 0-.847.109-.847.621zm35.437-4.233c-.948 0-1.277.517-1.277 1.16v2.349c0 .645.329 1.163 1.277 1.163.946 0 1.277-.518 1.277-1.163v-2.349c0-.643-.331-1.16-1.277-1.16zM13.51 22.825h-2.787v-6.739H9.329v-2.323h1.394v-1.394c0-1.895.787-3.021 3.02-3.021h1.861v2.323h-1.162c-.87 0-.928.325-.928.93l-.004 1.162h2.108l-.247 2.323H13.51v6.739zm9.529.017h-2.323l-.1-.587a5.331 5.331 0 0 1-2.633.682c-1.704 0-2.611-1.137-2.611-2.709 0-1.854 1.058-2.517 2.951-2.517h1.927v-.401c0-.947-.109-1.225-1.567-1.225h-2.384l.233-2.323h2.605c3.199 0 3.901 1.01 3.901 3.566v5.513zm7.901-6.586c-1.446-.248-1.861-.302-2.556-.302-1.25 0-1.628.276-1.628 1.335v2.005c0 1.06.378 1.336 1.628 1.336.695 0 1.111-.055 2.556-.303v2.265c-1.267.284-2.092.359-2.789.359-2.994 0-4.183-1.572-4.183-3.843v-1.627c0-2.272 1.189-3.848 4.183-3.848.697 0 1.522.075 2.789.359v2.265zm8.724 2.851h-5.112v.187c0 1.06.378 1.336 1.627 1.336 1.124 0 1.809-.055 3.252-.303v2.265c-1.392.284-2.117.359-3.483.359-2.993 0-4.184-1.572-4.184-3.843v-1.86c0-1.986.884-3.614 3.951-3.614s3.949 1.609 3.949 3.614v1.86zm9.063.043c0 2.195-.628 3.796-4.433 3.796-1.373 0-2.18-.121-3.697-.354V10.046l2.787-.464v4.388c.602-.224 1.382-.337 2.092-.337 2.788 0 3.252 1.248 3.252 3.253v2.264zm8.935.048c0 1.893-.783 3.73-4.058 3.73-3.277 0-4.074-1.837-4.074-3.73V17.37c0-1.894.797-3.731 4.074-3.731 3.275 0 4.058 1.837 4.058 3.731v1.828zm8.927 0c0 1.893-.784 3.73-4.057 3.73-3.277 0-4.075-1.837-4.075-3.73V17.37c0-1.894.798-3.731 4.075-3.731 3.274 0 4.057 1.837 4.057 3.731v1.828zm9.163 3.627H72.73l-2.555-4.259v4.259h-2.787V10.046l2.787-.464v8.227l2.555-4.045h3.022l-2.79 4.414 2.79 4.648zm-13.23-6.866c-.947 0-1.275.517-1.275 1.16v2.349c0 .645.329 1.163 1.275 1.163s1.28-.518 1.28-1.163v-2.349c0-.643-.334-1.16-1.28-1.16zm14.821 5.277c.469 0 .843.382.843.859a.847.847 0 0 1-.847.863.852.852 0 0 1-.851-.863c0-.477.382-.859.851-.859h.004zm-.004.133c-.378 0-.687.325-.687.726 0 .408.309.73.692.73.382.004.687-.321.687-.726s-.306-.73-.687-.73h-.004zm-.161 1.227h-.152v-.959c.08-.012.156-.022.271-.022.146 0 .241.03.298.072s.087.107.087.199c0 .126-.083.202-.186.233v.008c.084.015.141.091.16.232a.821.821 0 0 0 .061.238h-.16a.68.68 0 0 1-.065-.244c-.023-.123-.084-.169-.207-.169h-.107v.413zm0-.531h.111c.125 0 .233-.046.233-.164 0-.085-.061-.169-.233-.169a.705.705 0 0 0-.111.008v.325z"/></svg>