<svg xmlns="http://www.w3.org/2000/svg" width="32" height="32" viewBox="0 0 32 32"><path fill="#fff" d="M16.173 28.532c-6.341 0-13.545-7.637-12.969-13.977C3.78 8.503 11.85 2.883 17.83 3.748c5.26.72 9.943 7.349 9.654 12.609-.288 5.547-5.764 12.177-11.312 12.177z"/><path fill="#00aff0" d="M20.713 31.774c-.432-.145-1.081-.288-1.441-.432-.432-.216-.937-.216-2.521-.145-1.513.072-2.306 0-3.386-.145C7.601 30.044 2.99 25.864 1.332 20.101c-.288-1.081-.36-1.657-.36-4.251 0-2.81-.072-3.026-.432-4.179C-1.549 5.979 2.701-.001 8.754-.001c1.225 0 2.738.361 3.602.792.577.288.937.36 3.17.36 2.018 0 2.81.072 3.818.361 4.539 1.153 8.214 4.107 10.159 8.214 1.225 2.521 1.658 5.116 1.369 8.069-.144 1.586-.144 1.729.216 2.666 1.153 3.387.072 7.277-2.738 9.583-.866.721-2.594 1.513-3.674 1.801-1.082.216-2.81.216-3.892-.072h-.07zm-1.945-5.549c2.378-.504 4.466-1.945 5.259-3.674 1.008-2.089.72-4.539-.648-6.052-1.153-1.297-2.882-2.017-6.989-3.026-2.738-.648-3.387-.936-3.963-1.585-.505-.577-.577-1.008-.144-1.657.432-.721 1.513-1.153 2.954-1.225 2.09-.144 3.026.36 4.251 2.305.936 1.441 1.872 1.801 3.098 1.225 1.585-.792 1.441-3.386-.289-4.899-1.658-1.369-3.458-1.945-6.484-1.945-3.171 0-5.333.648-6.774 2.089C7.886 8.934 7.67 9.582 7.67 11.383c0 1.873.216 2.449 1.441 3.531 1.297 1.225 2.378 1.658 6.267 2.594 2.738.648 3.458 1.008 4.107 1.729.289.361.432.648.432 1.297 0 .721-.072.865-.648 1.441-.865.865-2.161 1.224-3.818 1.153-1.945-.144-2.81-.72-3.818-2.738-.721-1.369-1.297-1.873-2.234-1.873-2.09 0-2.81 1.729-1.729 3.962.937 1.945 2.81 3.242 5.188 3.747 1.441.288 4.611.288 5.981 0h-.072z"/></svg>